<?xml version="1.0" encoding="UTF-8"?>
<svg width="588px" height="95px" viewBox="0 0 588 95" version="1.1" xmlns="http://www.w3.org/2000/svg" xmlns:xlink="http://www.w3.org/1999/xlink">
    <title>Group 2</title>
    <defs>
        <linearGradient x1="50%" y1="0%" x2="50%" y2="99.3471372%" id="linearGradient-1">
            <stop stop-color="#FBF44C" offset="0%"></stop>
            <stop stop-color="#D700EB" offset="100%"></stop>
        </linearGradient>
        <path d="M21.7148935,9.23429282 C21.5872339,9.31088857 21.3319148,9.38748431 20.9489361,9.46408006 C20.5659573,9.5406758 20.1191488,9.68110133 19.6085105,9.88535665 C19.5829786,9.88535665 19.474468,9.91727154 19.2829786,9.98110133 C19.0914893,10.0449311 18.9319148,10.076846 18.8042552,10.076846 C18.6765957,10.076846 18.6319148,10.0257822 18.6702127,9.92365452 C18.7085105,9.82152686 18.9319148,9.59173963 19.3404254,9.23429282 C19.7999999,8.82578219 20.2851063,8.3725907 20.7957446,7.87471836 C21.3063829,7.37684602 21.7787233,6.87259071 22.2127659,6.36195241 C22.6468084,5.85131411 23.0106382,5.35344178 23.3042552,4.8683354 C23.5978722,4.38322902 23.7574467,3.94918646 23.7829786,3.56620774 C23.8340424,3.08110136 23.7127658,2.74918647 23.4191488,2.57046307 C23.1255318,2.39173966 22.7297871,2.32790988 22.2319148,2.37897371 C21.7340425,2.43003754 21.1851063,2.55769711 20.5851063,2.76195243 C19.9851063,2.96620775 19.4042552,3.20237796 18.8425531,3.47046306 C18.280851,3.73854817 17.7702127,3.99386732 17.3106382,4.23642051 C16.8510637,4.4789737 16.5319148,4.66408008 16.3531914,4.79173965 C15.9191489,5.07259071 15.4021276,5.42365454 14.8021276,5.84493114 C14.2021276,6.26620773 13.6212765,6.73216517 13.0595744,7.24280347 C12.4978723,7.75344177 12.0127659,8.29599495 11.6042553,8.87046304 C11.1957446,9.44493112 10.9914893,10.0385481 10.9914893,10.6513141 C10.9914893,11.1874843 11.2851063,11.6470588 11.8723404,12.0300375 C12.4595744,12.4130162 13.1553191,12.7449311 13.9595744,13.0257822 C14.7638297,13.3066332 15.568085,13.5491864 16.3723403,13.7534417 C17.1765957,13.9576971 17.7702127,14.1491864 18.1531914,14.3279098 C18.9191488,14.6853566 19.5765957,15.1193992 20.1255318,15.6300375 C20.674468,16.1406758 21.0765956,16.6896119 21.3319148,17.276846 C22.3276595,17.0215268 23.2914893,16.8172715 24.2234041,16.66408 C25.155319,16.5108885 26.0297871,16.4215268 26.8468084,16.3959949 C27.255319,16.3959949 27.6510637,16.4598247 28.0340424,16.5874843 C28.4170211,16.7151439 28.9659573,16.8045056 29.6808509,16.8555694 C30.1914892,16.9066332 30.4340424,16.9959949 30.4085105,17.1236545 C30.3829786,17.2513141 30.1276594,17.3534417 29.6425531,17.4300375 C28.2638297,17.6342928 26.8978722,17.9023779 25.5446807,18.2342928 C24.1914892,18.5662077 22.8382978,18.9236545 21.4851063,19.3066332 C21.3319148,19.9959949 21,20.6470587 20.4893616,21.2598247 C19.4170212,22.6130162 18.1723403,23.8130162 16.7553191,24.8598247 C15.3382978,25.9066332 13.9021276,26.8768459 12.4468085,27.7704629 C11.8085106,28.1534417 11.1382978,28.5555693 10.4361702,28.9768459 C9.73404251,29.3981225 9.01914889,29.7938672 8.29148932,30.16408 C7.56382975,30.5342927 6.82340422,30.8470587 6.07021274,31.1023778 C5.31702125,31.357697 4.55744679,31.5236544 3.79148934,31.6002502 C3.40851062,31.651314 2.99361701,31.6130161 2.5468085,31.4853565 C2.09999999,31.357697 1.69148935,31.1725906 1.32127659,30.9300374 C0.951063825,30.6874842 0.638297869,30.3811012 0.382978722,30.0108885 C0.127659574,29.6406757 1.5113515e-12,29.238548 1.5113515e-12,28.8045055 C1.5113515e-12,28.4215268 0.082978723,28.057697 0.248936169,27.7130161 C0.414893615,27.3683353 0.631914891,27.0428034 0.899999996,26.7364204 C1.1680851,26.4300374 1.46170212,26.1491864 1.78085106,25.8938672 C2.09999999,25.6385481 2.39999999,25.4087608 2.68085105,25.2045055 C3.8042553,24.3619523 4.99148934,23.6279098 6.24255316,23.0023779 C7.49361699,22.376846 8.75744677,21.7959949 10.0340425,21.2598247 C11.3361702,20.6725906 12.7851063,20.0853566 14.380851,19.4981226 C15.9765957,18.9108885 17.5787233,18.3747183 19.187234,17.8896119 C19.2127659,17.7619524 19.2319148,17.6470587 19.2446808,17.5449311 C19.2574467,17.4428034 19.2510637,17.3406758 19.2255318,17.2385481 C19.1489361,16.8555694 18.9829786,16.5428034 18.7276595,16.3002502 C18.4723403,16.057697 18.1787233,15.8534417 17.8468084,15.6874843 C17.5148935,15.5215268 17.1765957,15.3811013 16.8319148,15.2662077 C16.487234,15.1513141 16.1617021,15.0428034 15.8553191,14.9406758 C15.4723404,14.8130162 15.0127659,14.6725907 14.4765957,14.5193992 C13.9404255,14.3662077 13.3851063,14.1874843 12.8106382,13.983229 C12.2361702,13.7789737 11.674468,13.5428034 11.1255319,13.2747183 C10.5765957,13.0066332 10.0914893,12.7002503 9.67021272,12.3555694 C9.24893613,12.0108886 8.92340421,11.6151439 8.69361698,11.1683354 C8.46382975,10.7215269 8.387234,10.2045056 8.46382975,9.61727154 C8.56595741,8.74918644 8.91702123,7.91301623 9.51702123,7.10876092 C10.1170212,6.3045056 10.8191489,5.57046305 11.6234042,4.90663327 C12.4276595,4.24280348 13.2765957,3.64280349 14.1702127,3.10663328 C15.0638297,2.57046307 15.868085,2.13642052 16.5829786,1.80450562 C17.2212765,1.49812265 17.9361701,1.21727158 18.7276595,0.961952436 C19.5191488,0.706633288 20.3170212,0.559824778 21.1212765,0.521526906 C21.9255318,0.483229034 22.7106382,0.585356693 23.4765956,0.827909883 C24.2425531,1.07046307 24.9446807,1.53642052 25.5829786,2.22578222 C26.1191488,2.83854817 26.3170212,3.489612 26.1765956,4.1789737 C26.0361701,4.8683354 25.7234041,5.53854816 25.2382978,6.18961199 C24.7531914,6.84067581 24.1723403,7.43429283 23.4957446,7.97046304 C22.8191488,8.50663325 22.2255318,8.92790985 21.7148935,9.23429282 Z M13.0595744,24.170463 C13.7999999,23.6598247 14.5276595,23.1172715 15.2425531,22.5428034 C15.9574467,21.9683353 16.6212765,21.3491864 17.2340425,20.6853566 C14.2723404,21.7832289 11.5914893,22.9193991 9.19148932,24.0938672 C8.1191489,24.6045055 7.02127656,25.2045055 5.89787231,25.8938672 C4.77446806,26.5832289 3.82978722,27.3236544 3.06382977,28.1151438 C1.5574468,29.6725906 1.91489361,30.0428034 4.13617019,29.2257821 C5.74468082,28.638548 7.28936167,27.8917395 8.77021272,26.9853566 C10.2510638,26.0789736 11.680851,25.1406757 13.0595744,24.170463 Z" id="path-2"></path>
        <filter x="-19.7%" y="-19.3%" width="139.5%" height="138.6%" filterUnits="objectBoundingBox" id="filter-3">
            <feOffset dx="0" dy="0" in="SourceAlpha" result="shadowOffsetOuter1"></feOffset>
            <feGaussianBlur stdDeviation="2" in="shadowOffsetOuter1" result="shadowBlurOuter1"></feGaussianBlur>
            <feColorMatrix values="0 0 0 0 0.28627451   0 0 0 0 1   0 0 0 0 0.937254902  0 0 0 0.59 0" type="matrix" in="shadowBlurOuter1"></feColorMatrix>
        </filter>
        <path d="M32.8212764,17.1236545 C32.5404254,17.5321651 32.1957445,17.9534417 31.7872339,18.3874843 C31.3787233,18.8215268 30.9510637,19.2300375 30.5042552,19.6130162 C30.0574467,19.9959949 29.6042552,20.3342928 29.1446807,20.6279098 C28.6851062,20.9215268 28.2638297,21.1193991 27.8808509,21.2215268 C27.8808509,21.5023779 27.8999999,21.7832289 27.9382977,22.06408 C27.9765956,22.3449311 28.0595743,22.5747183 28.1872339,22.7534417 C28.3914892,23.0853566 28.6595743,23.2385481 28.9914892,23.2130162 C29.3234041,23.1874842 29.668085,23.0853566 30.0255318,22.9066332 C30.6382977,22.6002502 31.2574467,22.2236545 31.8829786,21.776846 C32.5085105,21.3300374 33.1276594,20.8385481 33.7404254,20.3023779 C34.3531913,19.7662077 34.9468083,19.2108885 35.5212764,18.6364204 C36.0957445,18.0619524 36.6255317,17.5193992 37.1106381,17.0087609 C37.3148934,16.8045056 37.4617019,16.7342928 37.5510637,16.7981226 C37.6404254,16.8619524 37.6340424,16.983229 37.5319147,17.1619524 C37.2510637,17.8002502 37.0404254,18.3491864 36.8999998,18.8087609 C36.7595743,19.2683353 36.6382977,19.651314 36.53617,19.957697 C36.4851062,20.1619523 36.3382977,20.4491864 36.0957445,20.8193992 C35.8531913,21.1896119 35.5468083,21.5917396 35.1765956,22.0257821 C34.8063828,22.4598247 34.3787232,22.8938672 33.8936169,23.3279098 C33.4085105,23.7619523 32.8787232,24.1257821 32.3042552,24.4193991 C31.7297871,24.7130162 31.1170211,24.8981225 30.4659573,24.9747183 C29.8148935,25.051314 29.1574467,24.9619523 28.4936169,24.7066332 C27.5234041,24.3491864 26.8404254,23.8130162 26.4446807,23.0981225 C26.048936,22.3832289 25.8382977,21.6045055 25.8127658,20.7619523 C25.7872339,19.9193992 25.9148935,19.057697 26.1957446,18.176846 C26.4765956,17.2959949 26.8212765,16.4981226 27.2297871,15.783229 C27.4085105,15.4513141 27.6510637,15.0811013 27.9574467,14.6725907 C28.2638297,14.26408 28.6021275,13.8683354 28.9723403,13.4853566 C29.3425531,13.1023779 29.7127658,12.776846 30.0829786,12.5087609 C30.4531913,12.2406758 30.8170211,12.0811013 31.1744679,12.0300375 C31.5574467,12.0045056 32.0042552,12.1130162 32.5148935,12.3555694 C33.0255318,12.5981226 33.4212764,12.8470588 33.7021275,13.1023779 C33.9574466,13.383229 34.0978722,13.7023779 34.1234041,14.0598247 C34.148936,14.4172715 34.0914892,14.7747183 33.9510637,15.1321651 C33.8106381,15.4896119 33.6319147,15.8406758 33.4148935,16.1853566 C33.1978722,16.5300375 32.9999998,16.8428034 32.8212764,17.1236545 Z M28.6085105,18.46408 C29.1957445,17.9023779 29.7638296,17.2513141 30.3127658,16.5108885 C30.861702,15.770463 31.2893616,15.0045056 31.5957445,14.2130162 C31.3659573,14.3662077 31.1297871,14.583229 30.8872339,14.86408 C30.6446807,15.1449311 30.4212765,15.4385481 30.2170211,15.7449311 C30.0127658,16.0513141 29.8212765,16.3513141 29.6425531,16.6449311 C29.4638296,16.9385481 29.3234041,17.1747183 29.2212765,17.3534417 L28.6085105,18.46408 Z" id="path-4"></path>
        <filter x="-50.8%" y="-46.2%" width="201.7%" height="192.5%" filterUnits="objectBoundingBox" id="filter-5">
            <feOffset dx="0" dy="0" in="SourceAlpha" result="shadowOffsetOuter1"></feOffset>
            <feGaussianBlur stdDeviation="2" in="shadowOffsetOuter1" result="shadowBlurOuter1"></feGaussianBlur>
            <feColorMatrix values="0 0 0 0 0.28627451   0 0 0 0 1   0 0 0 0 0.937254902  0 0 0 0.59 0" type="matrix" in="shadowBlurOuter1"></feColorMatrix>
        </filter>
        <path d="M49.8638296,17.4683353 C50.2723402,17.1619524 50.5021274,17.0406758 50.5531912,17.1045056 C50.6042551,17.1683353 50.4638295,17.3917396 50.1319147,17.7747183 C49.5191487,18.5151438 48.8808508,19.2555694 48.217021,19.9959949 C47.5531913,20.7364204 46.8893615,21.4321651 46.2255317,22.0832289 C45.5617019,22.7342928 44.8914891,23.3151438 44.2148934,23.8257821 C43.5382977,24.3364204 42.8680849,24.7193991 42.2042551,24.9747183 C41.948936,25.5874842 41.5851062,26.0470587 41.1127658,26.3534417 C40.6404253,26.6598247 40.129787,26.8257821 39.5808509,26.851314 C39.0319147,26.8768459 38.4638296,26.7747183 37.8765956,26.544931 C37.2893615,26.3151438 36.7659573,25.970463 36.3063828,25.5108885 C36.1787232,25.3832289 36.0510637,25.2172715 35.9234041,25.0130162 C35.7957445,24.8087608 35.6999998,24.5917396 35.63617,24.3619523 C35.5723403,24.1321651 35.5531913,23.9151438 35.5787232,23.7108885 C35.6042552,23.5066332 35.7191488,23.3279098 35.9234041,23.1747183 C36.0255317,23.0725906 36.1851062,23.0151438 36.4021275,23.0023779 C36.6191488,22.9896119 36.848936,22.9896119 37.0914892,23.0023779 C37.3340424,23.0151438 37.5638296,23.0406757 37.7808509,23.0789736 C37.9978722,23.1172715 38.1702126,23.1491864 38.2978722,23.1747183 C38.655319,23.2002502 38.9936168,23.2130162 39.3127658,23.2130162 C39.6319147,23.2130162 39.9446807,23.1874842 40.2510636,23.1364204 C40.3276594,22.7534417 40.3659573,22.36408 40.3659573,21.9683353 C40.3659573,21.5725906 40.3659573,21.2087609 40.3659573,20.876846 C40.3914892,20.1874843 40.3851062,19.4917396 40.3468083,18.7896119 C40.3085104,18.0874843 40.2510636,17.3789736 40.1744679,16.66408 C39.2808509,17.6342928 38.3042551,18.5789736 37.2446807,19.4981226 C36.1851062,20.4172715 35.2340424,21.2087609 34.3914892,21.8725906 C34.0340424,22.1534417 33.8680849,22.1981225 33.8936169,22.0066332 C33.9191488,21.8151438 34.0340424,21.5789736 34.2382977,21.2981226 C34.4170211,21.0683353 34.5702126,20.8193992 34.6978722,20.551314 C34.8255317,20.2832289 34.9340424,20.0215268 35.0234041,19.7662077 C35.1127658,19.5108885 35.1957445,19.2811013 35.2723403,19.076846 C35.348936,18.8725906 35.4510637,18.7193992 35.5787232,18.6172715 C35.9106381,18.2853566 36.4659573,17.6598247 37.2446807,16.7406758 C38.0234041,15.8215268 38.8595743,14.583229 39.7531913,13.0257822 C39.855319,12.8470588 40.0212764,12.770463 40.2510636,12.7959949 C40.4808509,12.8215268 40.7106381,12.9045056 40.9404253,13.0449311 C41.1702126,13.1853566 41.3808509,13.3513141 41.5723402,13.5428034 C41.7638296,13.7342928 41.8723402,13.8938673 41.8978721,14.0215268 C42.1276594,15.3747183 42.3382977,16.7789736 42.529787,18.2342928 C42.7212764,19.6896119 42.7531913,21.1193991 42.6255317,22.5236545 C43.1106381,22.2938672 43.6148934,21.9683353 44.1382977,21.5470587 C44.6617019,21.1257821 45.1723402,20.6981226 45.6702125,20.26408 C46.1680849,19.8300375 46.6468083,19.4215268 47.1063828,19.0385481 C47.5659572,18.6555694 47.9872338,18.3747183 48.3702125,18.1959949 C48.6510636,18.0683353 48.9063827,17.9662077 49.13617,17.8896119 C49.3659572,17.8130162 49.6085104,17.6725907 49.8638296,17.4683353 Z" id="path-6"></path>
        <filter x="-36.0%" y="-42.7%" width="172.0%" height="185.3%" filterUnits="objectBoundingBox" id="filter-7">
            <feOffset dx="0" dy="0" in="SourceAlpha" result="shadowOffsetOuter1"></feOffset>
            <feGaussianBlur stdDeviation="2" in="shadowOffsetOuter1" result="shadowBlurOuter1"></feGaussianBlur>
            <feColorMatrix values="0 0 0 0 0.28627451   0 0 0 0 1   0 0 0 0 0.937254902  0 0 0 0.59 0" type="matrix" in="shadowBlurOuter1"></feColorMatrix>
        </filter>
        <path d="M80.885106,7.43429283 C81.191489,7.51088858 81.5489358,7.52365453 81.9574464,7.4725907 C82.1361698,7.44705879 82.3212762,7.40876092 82.5127656,7.35769709 C82.7042549,7.30663326 82.8446805,7.28748432 82.9340422,7.30025028 C83.0234039,7.31301624 83.0425528,7.39599496 82.991489,7.54918645 C82.9404251,7.70237794 82.7617017,7.95769708 82.4553188,8.31514389 C81.7659571,9.18322899 81.0510634,10.1151439 80.3106379,11.1108886 C79.5702124,12.1066332 78.8425528,13.1023779 78.1276592,14.0981226 C77.4127656,15.0938673 76.7234039,16.070463 76.0595741,17.0279098 C75.3957443,17.9853566 74.8212762,18.8725906 74.3361699,19.6896119 C73.3659571,21.2725906 72.4021273,23.0279098 71.4446805,24.9555693 C70.4872337,26.8832289 69.7276592,28.8045055 69.1659571,30.7193991 C69.0127656,31.2045055 68.8723401,31.4470587 68.7446805,31.4470587 C68.617021,31.4470587 68.4765954,31.2045055 68.3234039,30.7193991 C68.2723401,30.5151438 68.2340422,30.2789736 68.2085103,30.0108885 C68.1829784,29.7428034 68.1063827,29.5066332 67.9787231,29.3023778 C67.8510635,29.0981225 67.697872,28.9002502 67.5191486,28.7087608 C67.3404252,28.5172715 67.3404252,28.1917395 67.5191486,27.7321651 C68.310638,25.7151438 69.1212763,23.9406757 69.9510635,22.4087608 C70.7808507,20.876846 71.5531911,19.5683353 72.2680848,18.4832289 C72.9829784,17.3981226 73.5957443,16.5236545 74.1063826,15.8598247 C74.6170209,15.1959949 74.9489358,14.7364205 75.1021273,14.4811013 C74.6425528,14.8896119 74.1063826,15.3619524 73.4936167,15.8981226 C72.8808507,16.4342928 72.2489358,16.983229 71.597872,17.5449311 C70.9468082,18.1066332 70.3085103,18.6491864 69.6829784,19.1725906 C69.0574465,19.6959949 68.4893614,20.1364204 67.9787231,20.4938672 C67.4680848,20.851314 66.8425529,21.3045055 66.1021273,21.8534417 C65.3617018,22.4023779 64.6212763,22.8428034 63.8808508,23.1747183 C63.2680848,23.4300374 62.6999997,23.4683353 62.1765954,23.2896119 C61.6531912,23.1108885 61.1999997,22.8236545 60.817021,22.4279098 C60.4340423,22.0321651 60.1468082,21.5725906 59.9553189,21.0491864 C59.7638295,20.5257821 59.7063827,20.0342928 59.7829784,19.5747183 C59.910638,18.8342928 60.3255316,17.8066332 61.0276593,16.4917396 C61.7297869,15.176846 62.5595742,13.7725907 63.517021,12.2789737 C64.4744678,10.7853566 65.4702125,9.27897367 66.504255,7.75982474 C67.5382976,6.24067582 68.4510635,4.90663327 69.2425529,3.7576971 C69.9319146,2.7108886 70.2191486,2.04705881 70.104255,1.76620775 C69.9893614,1.48535669 69.4851061,1.63854818 68.591489,2.22578222 C67.9276593,2.65982477 67.2510635,3.12578221 66.5617018,3.62365455 C65.8723401,4.12152689 65.2212763,4.62578221 64.6085103,5.1364205 C64.5063827,5.21301625 64.2702125,5.41727156 63.8999997,5.74918646 C63.5297869,6.08110135 63.0957444,6.47046305 62.597872,6.91727156 C62.0999997,7.36408007 61.5893614,7.84918645 61.0659572,8.3725907 C60.5425529,8.89599495 60.0765955,9.39386729 59.6680848,9.86620771 C59.2595742,10.3385481 58.9595742,10.7662077 58.7680848,11.1491864 C58.5765955,11.5321652 58.5574465,11.8002503 58.710638,11.9534417 C58.9914891,12.2598247 59.0936167,12.470463 59.017021,12.5853566 C58.9404253,12.7002503 58.7808508,12.7576971 58.5382976,12.7576971 C58.2957444,12.7576971 58.0212763,12.7002503 57.7148933,12.5853566 C57.4085104,12.470463 57.1787231,12.3364205 57.0255316,12.183229 C56.5914891,11.7236545 56.4063827,11.2321652 56.4702125,10.7087609 C56.5340423,10.1853566 56.7319146,9.67471835 57.0638295,9.17684601 C57.3957444,8.67897368 57.7851061,8.21301623 58.2319146,7.77897368 C58.6787231,7.34493113 59.0553189,6.96195241 59.3617018,6.63003752 C61.4553189,4.40876093 63.7914891,2.53216519 66.3702125,1.00025031 C66.7787231,0.74493116 67.2127656,0.521526906 67.6723401,0.330037545 C68.1319146,0.138548185 68.591489,0.0300375468 69.0510635,0.00450563202 C69.510638,-0.0210262828 69.9446805,0.0619524403 70.3531912,0.253441801 C70.7617018,0.444931162 71.1446805,0.808760947 71.5021273,1.34493116 C71.8085103,1.85556945 71.9170209,2.40450562 71.8276592,2.99173966 C71.7382975,3.5789737 71.5468082,4.16620774 71.2531912,4.75344178 C70.9595741,5.34067582 70.6276592,5.90237794 70.2574465,6.43854815 C69.8872337,6.97471836 69.5744678,7.43429283 69.3191486,7.81727155 C69.0127656,8.30237793 68.5851061,8.95982474 68.0361699,9.78961197 C67.4872337,10.6193992 66.8999997,11.5193992 66.2744678,12.489612 C65.6489359,13.4598247 65.0234039,14.4491864 64.397872,15.457697 C63.7723401,16.4662077 63.2297869,17.3981226 62.7702125,18.2534417 C62.310638,19.1087609 61.9787231,19.8300375 61.7744678,20.4172715 C61.5702125,21.0045055 61.5829784,21.3491864 61.8127657,21.451314 C62.0936167,21.6045055 62.604255,21.470463 63.3446806,21.0491864 C64.0851061,20.6279098 64.9659571,20.0406757 65.9872337,19.2874843 C67.0085103,18.5342928 68.1255316,17.6470587 69.3382975,16.6257821 C70.5510635,15.6045056 71.7765954,14.56408 73.0148933,13.5045056 C74.2531911,12.4449311 75.4468082,11.4172715 76.5957443,10.4215269 C77.7446805,9.42578218 78.778723,8.55769708 79.697872,7.81727155 C79.9021273,7.63854815 80.0872337,7.51727155 80.2531911,7.45344177 C80.4191486,7.38961198 80.6297869,7.383229 80.885106,7.43429283 Z" id="path-8"></path>
        <filter x="-22.6%" y="-19.1%" width="145.2%" height="138.2%" filterUnits="objectBoundingBox" id="filter-9">
            <feOffset dx="0" dy="0" in="SourceAlpha" result="shadowOffsetOuter1"></feOffset>
            <feGaussianBlur stdDeviation="2" in="shadowOffsetOuter1" result="shadowBlurOuter1"></feGaussianBlur>
            <feColorMatrix values="0 0 0 0 0.28627451   0 0 0 0 1   0 0 0 0 0.937254902  0 0 0 0.59 0" type="matrix" in="shadowBlurOuter1"></feColorMatrix>
        </filter>
        <path d="M82.1872337,15.476846 C82.978723,14.7108885 83.6744677,14.1172715 84.2744677,13.6959949 C84.8744677,13.2747183 85.4234039,13.0066332 85.9212762,12.8917396 C86.4191485,12.776846 86.885106,12.8151439 87.3191485,13.0066332 C87.7531911,13.1981226 88.1999996,13.5364205 88.659574,14.0215268 L89.2340421,13.1406758 C89.3617017,12.9619524 89.57234,12.8981226 89.865957,12.9491864 C90.159574,13.0002503 90.4404251,13.1151439 90.7085102,13.2938673 C90.9765953,13.4725907 91.1808506,13.683229 91.3212762,13.9257822 C91.4617017,14.1683354 91.4553187,14.3789736 91.3021272,14.5576971 C91.1744677,14.7108885 90.9446804,15.0811013 90.6127655,15.6683353 C90.2808506,16.2555694 89.9297868,16.9257821 89.559574,17.6789736 C89.1893613,18.4321651 88.8510634,19.1789736 88.5446804,19.9193992 C88.2382975,20.6598247 88.0468081,21.2598247 87.9702123,21.7193991 C87.9446804,21.770463 87.9319145,21.8342928 87.9319145,21.9108885 C87.9319145,21.9874843 87.9319145,22.06408 87.9319145,22.1406757 C88.365957,21.9108885 88.8638294,21.5917396 89.4255315,21.1832289 C89.9872336,20.7747183 90.5361698,20.3598247 91.07234,19.9385481 C91.6085102,19.5172715 92.1127655,19.1151438 92.5851059,18.7321651 C93.0574464,18.3491864 93.4212762,18.0555694 93.6765953,17.8513141 C93.8808506,17.6981226 94.059574,17.5896119 94.2127655,17.5257821 C94.365957,17.4619524 94.5191485,17.4045055 94.67234,17.3534417 C94.8255315,17.3023779 94.9914889,17.2449311 95.1702123,17.1811013 C95.3489357,17.1172715 95.553191,17.0087609 95.7829783,16.8555694 C95.9361698,16.7534417 96.0446804,16.7215268 96.1085102,16.7598247 C96.17234,16.7981226 96.1404251,16.9066332 96.0127655,17.0853566 C95.0170208,18.4130162 93.9574464,19.7023779 92.8340421,20.9534417 C92.5276591,21.2853566 92.1829783,21.6683353 91.7999996,22.1023779 C91.4170208,22.5364204 91.0021272,22.9321651 90.5553187,23.2896119 C90.1085102,23.6470587 89.6425528,23.9215268 89.1574464,24.1130162 C88.67234,24.3045055 88.1744677,24.3236545 87.6638294,24.170463 C86.7446804,23.9406757 86.1446804,23.5959949 85.8638294,23.1364204 C85.5829783,22.6768459 85.5191485,22.1279098 85.67234,21.4896119 C85.1617017,22.2300374 84.6510634,22.9066332 84.1404251,23.5193991 C83.6297868,24.1321651 83.1319145,24.5789736 82.6468081,24.8598247 C80.9106379,25.9066332 79.6085103,25.5364204 78.7404252,23.7491864 C78.5617018,23.3917396 78.4595741,22.9257821 78.4340422,22.351314 C78.4085103,21.776846 78.5170209,21.1321651 78.7595741,20.4172715 C79.0021273,19.7023779 79.391489,18.9300375 79.9276592,18.1002502 C80.4638294,17.270463 81.2170209,16.3959949 82.1872337,15.476846 Z M82.7234039,21.757697 C83.7191485,20.6853566 84.6702124,19.5491864 85.5765953,18.3491864 C86.4829783,17.1491864 87.3446804,15.9364205 88.1617017,14.7108885 C87.8297868,14.6598247 87.4212762,14.7683353 86.9361698,15.0364205 C86.4510634,15.3045056 85.97234,15.6236545 85.4999996,15.9938673 C85.0276592,16.36408 84.5936166,16.7279098 84.1978719,17.0853566 C83.8021273,17.4428034 83.5404251,17.6981226 83.4127656,17.8513141 C83.1063826,18.2087609 82.7553188,18.6619524 82.3595741,19.2108885 C81.9638294,19.7598247 81.5936166,20.3279098 81.2489358,20.9151438 C80.9042549,21.5023779 80.6297869,22.051314 80.4255315,22.5619523 C80.2212762,23.0725906 80.1702124,23.4555694 80.27234,23.7108885 C80.4255315,23.9406757 80.6744677,23.8832289 81.0191486,23.5385481 C81.3638294,23.1938672 81.9319145,22.6002502 82.7234039,21.757697 Z" id="path-10"></path>
        <filter x="-33.9%" y="-47.6%" width="167.8%" height="195.1%" filterUnits="objectBoundingBox" id="filter-11">
            <feOffset dx="0" dy="0" in="SourceAlpha" result="shadowOffsetOuter1"></feOffset>
            <feGaussianBlur stdDeviation="2" in="shadowOffsetOuter1" result="shadowBlurOuter1"></feGaussianBlur>
            <feColorMatrix values="0 0 0 0 0.28627451   0 0 0 0 1   0 0 0 0 0.937254902  0 0 0 0.59 0" type="matrix" in="shadowBlurOuter1"></feColorMatrix>
        </filter>
        <path d="M97.0085102,12.6045056 C97.3404251,12.8853566 97.5255315,13.2236545 97.5638293,13.6193992 C97.6021272,14.0151439 97.5510634,14.4364205 97.4106378,14.883229 C97.2702123,15.3300375 97.065957,15.776846 96.7978719,16.2236545 C96.5297868,16.670463 96.2680846,17.0725907 96.0127655,17.4300375 C96.1404251,17.8130162 96.2936166,18.1959949 96.47234,18.5789736 C96.6510634,18.9619524 96.765957,19.4087609 96.8170208,19.9193992 C96.9191485,20.6342928 96.8936166,21.3428034 96.7404251,22.0449311 C96.5872336,22.7470587 96.47234,23.3917396 96.3957442,23.9789736 C96.8553187,23.6725906 97.3340421,23.257697 97.8319144,22.7342928 C98.3297868,22.2108885 98.8148931,21.6811013 99.2872336,21.1449311 C99.759574,20.6087609 100.2,20.1045055 100.60851,19.6321651 C101.017021,19.1598247 101.348936,18.7959949 101.604255,18.5406758 C101.93617,18.2087609 102.280851,17.857697 102.638297,17.4874843 C102.995744,17.1172715 103.391489,16.9066332 103.825531,16.8555694 C104.029787,16.8045056 104.221276,16.7342928 104.4,16.6449311 C104.578723,16.5555694 104.770212,16.4470587 104.974468,16.3193992 C105.051063,16.2683353 105.114893,16.2619524 105.165957,16.3002502 C105.217021,16.3385481 105.204255,16.4215268 105.127659,16.5491864 C104.668085,17.2385481 104.080851,18.1002502 103.365957,19.1342928 C102.651063,20.1683353 101.910638,21.176846 101.14468,22.1598247 C100.378723,23.1428034 99.6319144,24.0108885 98.9042548,24.76408 C98.1765953,25.5172715 97.5702123,25.970463 97.0851059,26.1236544 C96.9063825,26.1747183 96.6574463,26.1747183 96.3382974,26.1236544 C96.0191485,26.0725906 95.6936166,25.9832289 95.3617017,25.8555693 C95.0297868,25.7279098 94.7170208,25.5555693 94.4234038,25.3385481 C94.1297868,25.1215268 93.9191485,24.8725906 93.7914889,24.5917396 C93.7148932,24.3874842 93.6957442,24.1321651 93.7340421,23.8257821 C93.77234,23.5193991 93.8361698,23.1747183 93.9255315,22.7917396 C94.0148932,22.4087608 94.1106379,21.9874843 94.2127655,21.5279098 C94.3148932,21.0683353 94.3914889,20.5832289 94.4425527,20.0725906 C94.4936166,19.4853566 94.4744676,18.9300375 94.3851059,18.4066332 C94.2957442,17.883229 94.2127655,17.3598247 94.1361698,16.8364204 C94.059574,16.3130162 94.0276591,15.7896119 94.0404251,15.2662077 C94.053191,14.7428034 94.1744676,14.1874843 94.4042549,13.6002502 C94.6340421,13.0130162 95.0170208,12.6108886 95.553191,12.3938673 C96.0893612,12.176846 96.5744676,12.2470588 97.0085102,12.6045056 Z" id="path-12"></path>
        <filter x="-52.3%" y="-43.2%" width="204.5%" height="186.4%" filterUnits="objectBoundingBox" id="filter-13">
            <feOffset dx="0" dy="0" in="SourceAlpha" result="shadowOffsetOuter1"></feOffset>
            <feGaussianBlur stdDeviation="2" in="shadowOffsetOuter1" result="shadowBlurOuter1"></feGaussianBlur>
            <feColorMatrix values="0 0 0 0 0.28627451   0 0 0 0 1   0 0 0 0 0.937254902  0 0 0 0.59 0" type="matrix" in="shadowBlurOuter1"></feColorMatrix>
        </filter>
        <path d="M105.931914,23.1364204 C106.442553,22.8555694 107.010638,22.4789736 107.63617,22.0066332 C108.261702,21.5342928 108.906382,21.0172715 109.570212,20.4555694 C110.234042,19.8938672 110.904255,19.3193992 111.580851,18.7321651 C112.257446,18.1449311 112.902127,17.583229 113.514893,17.0470587 C113.617021,16.970463 113.680851,16.976846 113.706382,17.0662077 C113.731914,17.1555694 113.706382,17.26408 113.629787,17.3917396 C113.374468,17.8513141 113.182978,18.2151438 113.055319,18.4832289 C112.927659,18.7513141 112.799999,19.06408 112.67234,19.4215268 C112.54468,19.7534417 112.212765,20.2066332 111.676595,20.7811013 C111.140425,21.3555694 110.559574,21.9364204 109.934042,22.5236545 C109.30851,23.1108885 108.689361,23.6534417 108.076595,24.151314 C107.463829,24.6491864 107.017021,24.9747183 106.73617,25.1279098 C106.60851,25.2045055 106.378723,25.2364204 106.046808,25.2236544 C105.714893,25.2108885 105.363829,25.1534417 104.993617,25.051314 C104.623404,24.9491864 104.27234,24.8087608 103.940425,24.6300374 C103.60851,24.451314 103.378723,24.2215268 103.251063,23.9406757 C103.123404,23.6598247 103.078723,23.2896119 103.117021,22.8300374 C103.155319,22.370463 103.251063,21.8662077 103.404255,21.3172715 C103.557446,20.7683353 103.748936,20.1938672 103.978723,19.5938672 C104.20851,18.9938672 104.463829,18.4130162 104.74468,17.8513141 L103.748936,18.6172715 C103.519148,18.7449311 103.327659,18.8279098 103.174468,18.8662077 C103.021276,18.9045055 102.868085,18.9428034 102.714893,18.9811013 C102.561702,19.0193992 102.395744,19.070463 102.217021,19.1342928 C102.038297,19.1981226 101.821276,19.3193992 101.565957,19.4981226 C101.438297,19.6002502 101.342553,19.6257821 101.278723,19.5747183 C101.214893,19.5236545 101.246808,19.3959949 101.374468,19.1917396 C101.782978,18.5534417 102.229787,17.9023779 102.714893,17.2385481 C103.2,16.5747183 103.67234,15.9555694 104.131914,15.3811013 C104.591489,14.8066332 105.019148,14.2959949 105.414893,13.8491864 C105.810638,13.4023779 106.123404,13.076846 106.353191,12.8725907 C106.531914,12.7193992 106.748936,12.6428034 107.004255,12.6428034 C107.74468,12.5917396 108.287234,12.7193992 108.631914,13.0257822 C108.976595,13.3321651 109.085106,13.66408 108.957446,14.0215268 C108.778723,14.4811013 108.497872,15.1513141 108.114893,16.0321651 C107.731914,16.9130162 107.355319,17.8257821 106.985106,18.770463 C106.614893,19.7151438 106.314893,20.5959949 106.085106,21.4130162 C105.855319,22.2300374 105.804255,22.8045055 105.931914,23.1364204 Z" id="path-14"></path>
        <filter x="-48.1%" y="-47.6%" width="196.2%" height="195.3%" filterUnits="objectBoundingBox" id="filter-15">
            <feOffset dx="0" dy="0" in="SourceAlpha" result="shadowOffsetOuter1"></feOffset>
            <feGaussianBlur stdDeviation="2" in="shadowOffsetOuter1" result="shadowBlurOuter1"></feGaussianBlur>
            <feColorMatrix values="0 0 0 0 0.28627451   0 0 0 0 1   0 0 0 0 0.937254902  0 0 0 0.59 0" type="matrix" in="shadowBlurOuter1"></feColorMatrix>
        </filter>
        <path d="M126.114893,17.4683353 C126.523404,17.1619524 126.753191,17.0406758 126.804255,17.1045056 C126.855319,17.1683353 126.714893,17.3917396 126.382978,17.7747183 C125.770212,18.5151438 125.131914,19.2555694 124.468085,19.9959949 C123.804255,20.7364204 123.140425,21.4321651 122.476595,22.0832289 C121.812765,22.7342928 121.142553,23.3151438 120.465957,23.8257821 C119.789361,24.3364204 119.119148,24.7193991 118.455319,24.9747183 C118.199999,25.5619523 117.848936,26.0023778 117.402127,26.2959949 C116.955319,26.5896119 116.463829,26.7619523 115.927659,26.8130161 C115.570212,26.9917395 115.187233,27.1832289 114.778723,27.3874842 C114.370212,27.5917395 114.025531,27.7959949 113.74468,28.0002502 C113.897872,28.0002502 114.038297,28.0002502 114.165957,28.0002502 C114.293616,28.0002502 114.40851,28.0130161 114.510638,28.0385481 C114.689361,28.06408 114.861702,28.0896119 115.027659,28.1151438 C115.193616,28.1406757 115.365957,28.1789736 115.54468,28.2300374 C115.902127,28.357697 116.253191,28.5300374 116.597872,28.7470587 C116.942553,28.96408 117.217021,29.2257821 117.421276,29.5321651 C117.676595,29.9151438 117.765957,30.3045055 117.689361,30.7002502 C117.612765,31.0959948 117.453191,31.4725906 117.210638,31.8300374 C116.968085,32.1874842 116.668085,32.5193991 116.310638,32.8257821 C115.953191,33.132165 115.621276,33.3747182 115.314893,33.5534416 C114.523404,34.0640799 113.642553,34.3959948 112.67234,34.5491863 C111.702127,34.7023778 110.770212,34.6002501 109.876595,34.2428033 C109.54468,34.0896119 109.212765,33.8917395 108.880851,33.6491863 C108.548936,33.4066331 108.274468,33.132165 108.057446,32.8257821 C107.840425,32.5193991 107.699999,32.1874842 107.63617,31.8300374 C107.57234,31.4725906 107.642553,31.1023778 107.846808,30.7193991 C107.948936,30.5406757 108.140425,30.4768459 108.421276,30.5279097 C108.702127,30.5789736 108.976595,30.6874842 109.24468,30.8534417 C109.512765,31.0193991 109.723404,31.2236544 109.876595,31.4662076 C110.029787,31.7087608 110.055319,31.9193991 109.953191,32.0981225 C109.748936,32.4555693 109.787234,32.6725906 110.068085,32.7491863 C110.348936,32.8257821 110.699999,32.8257821 111.121276,32.7491863 C111.542553,32.6725906 111.957446,32.5704629 112.365957,32.4428034 C112.774468,32.3151438 113.004255,32.2257821 113.055319,32.1747182 C113.438297,31.9704629 113.795744,31.7279097 114.127659,31.4470587 C114.459574,31.1662076 114.765957,30.8470587 115.046808,30.4896119 C115.097872,30.438548 115.193616,30.3172714 115.334042,30.1257821 C115.474468,29.9342927 115.531914,29.8130161 115.506382,29.7619523 C115.506382,29.7364204 115.448936,29.7172714 115.334042,29.7045055 C115.219148,29.6917395 115.097872,29.6789736 114.970212,29.6662076 C114.842553,29.6534417 114.721276,29.6406757 114.606382,29.6279097 C114.491489,29.6151438 114.421276,29.6087608 114.395744,29.6087608 C114.063829,29.557697 113.725531,29.5193991 113.380851,29.4938672 C113.03617,29.4683353 112.710638,29.3789736 112.404255,29.2257821 C112.199999,29.1491863 111.995744,29.0342927 111.791489,28.8811012 C111.587234,28.7279098 111.414893,28.5619523 111.274468,28.3832289 C111.134042,28.2045055 111.051063,28.0130161 111.025531,27.8087608 C110.999999,27.6045055 111.063829,27.3874842 111.217021,27.157697 C111.395744,26.9023778 111.670212,26.6917395 112.040425,26.5257821 C112.410638,26.3598247 112.812765,26.2130161 113.246808,26.0853566 C113.017021,25.9321651 112.787234,25.7406757 112.557446,25.5108885 C112.429787,25.3832289 112.302127,25.2172715 112.174468,25.0130162 C112.046808,24.8087608 111.951063,24.5917396 111.887234,24.3619523 C111.823404,24.1321651 111.804255,23.9151438 111.829787,23.7108885 C111.855319,23.5066332 111.970212,23.3279098 112.174468,23.1747183 C112.276595,23.0725906 112.43617,23.0151438 112.653191,23.0023779 C112.870212,22.9896119 113.099999,22.9896119 113.342553,23.0023779 C113.585106,23.0151438 113.814893,23.0406757 114.031914,23.0789736 C114.248936,23.1172715 114.421276,23.1491864 114.548936,23.1747183 C114.906382,23.2002502 115.24468,23.2130162 115.563829,23.2130162 C115.882978,23.2130162 116.195744,23.1874842 116.502127,23.1364204 C116.578723,22.7534417 116.617021,22.36408 116.617021,21.9683353 C116.617021,21.5725906 116.617021,21.2087609 116.617021,20.876846 C116.642553,20.1874843 116.63617,19.4917396 116.597872,18.7896119 C116.559574,18.0874843 116.502127,17.3789736 116.425531,16.66408 C115.531914,17.6342928 114.555319,18.5789736 113.495744,19.4981226 C112.43617,20.4172715 111.485106,21.2087609 110.642553,21.8725906 C110.285106,22.1534417 110.119148,22.1981225 110.14468,22.0066332 C110.170212,21.8151438 110.285106,21.5789736 110.489361,21.2981226 C110.668085,21.0683353 110.821276,20.8193992 110.948936,20.551314 C111.076595,20.2832289 111.185106,20.0215268 111.274468,19.7662077 C111.363829,19.5108885 111.446808,19.2811013 111.523404,19.076846 C111.599999,18.8725906 111.702127,18.7193992 111.829787,18.6172715 C112.161702,18.2853566 112.717021,17.6598247 113.495744,16.7406758 C114.274468,15.8215268 115.110638,14.583229 116.004255,13.0257822 C116.106382,12.8470588 116.27234,12.770463 116.502127,12.7959949 C116.731914,12.8215268 116.961702,12.9045056 117.191489,13.0449311 C117.421276,13.1853566 117.631914,13.3513141 117.823404,13.5428034 C118.014893,13.7342928 118.123404,13.8938673 118.148936,14.0215268 C118.378723,15.3747183 118.589361,16.7789736 118.780851,18.2342928 C118.97234,19.6896119 119.004255,21.1193991 118.876595,22.5236545 C119.361702,22.2938672 119.865957,21.9683353 120.389361,21.5470587 C120.912765,21.1257821 121.423404,20.6981226 121.921276,20.26408 C122.419148,19.8300375 122.897872,19.4215268 123.357446,19.0385481 C123.817021,18.6555694 124.238297,18.3747183 124.621276,18.1959949 C124.902127,18.0683353 125.157446,17.9662077 125.387233,17.8896119 C125.617021,17.8130162 125.859574,17.6725907 126.114893,17.4683353 Z" id="path-16"></path>
        <filter x="-31.2%" y="-27.5%" width="162.5%" height="155.0%" filterUnits="objectBoundingBox" id="filter-17">
            <feOffset dx="0" dy="0" in="SourceAlpha" result="shadowOffsetOuter1"></feOffset>
            <feGaussianBlur stdDeviation="2" in="shadowOffsetOuter1" result="shadowBlurOuter1"></feGaussianBlur>
            <feColorMatrix values="0 0 0 0 0.28627451   0 0 0 0 1   0 0 0 0 0.937254902  0 0 0 0.59 0" type="matrix" in="shadowBlurOuter1"></feColorMatrix>
        </filter>
        <path d="M123.434042,24.3236545 C123.510638,23.6853566 123.599999,23.1045055 123.702127,22.5811013 C123.804255,22.057697 123.925531,21.5662077 124.065957,21.1066332 C124.206382,20.6470587 124.37234,20.2002502 124.563829,19.7662077 C124.755319,19.3321651 124.965957,18.8981226 125.195744,18.46408 C125.297872,18.2853566 125.323404,18.176846 125.27234,18.1385481 C125.221276,18.1002502 125.138297,18.1066332 125.023404,18.157697 C124.90851,18.2087609 124.774467,18.2789736 124.621276,18.3683353 C124.468085,18.457697 124.314893,18.5406758 124.161702,18.6172715 C124.034042,18.6683353 123.957446,18.6491864 123.931914,18.5598247 C123.906382,18.470463 123.94468,18.3874843 124.046808,18.3108885 C124.276595,18.0811013 124.602127,17.7236545 125.023404,17.2385481 C125.44468,16.7534417 125.878723,16.2555694 126.325531,15.7449311 C126.77234,15.2342928 127.174467,14.7619524 127.531914,14.3279098 C127.889361,13.8938673 128.131914,13.6130162 128.259574,13.4853566 C128.361702,13.383229 128.553191,13.3513141 128.834042,13.389612 C129.114893,13.4279098 129.382978,13.5108885 129.638297,13.6385481 C129.893616,13.7662077 130.097872,13.9257822 130.251063,14.1172715 C130.404255,14.3087609 130.417021,14.4938673 130.289361,14.6725907 C129.548936,15.6938673 128.821276,16.7087609 128.106382,17.7172715 C127.391489,18.7257821 126.753191,19.8172715 126.191489,20.9917396 C126.727659,20.3534417 127.231914,19.7853566 127.704255,19.2874843 C128.176595,18.7896119 128.648936,18.3236545 129.121276,17.8896119 C129.593616,17.4555694 130.065957,17.0406758 130.538297,16.6449311 C131.010638,16.2491864 131.514893,15.8342928 132.051063,15.4002502 C132.153191,15.3236545 132.325531,15.2853566 132.568084,15.2853566 C132.810638,15.2853566 133.046808,15.3236545 133.276595,15.4002502 C133.506382,15.476846 133.704255,15.5917396 133.870212,15.7449311 C134.03617,15.8981226 134.106382,16.0896119 134.08085,16.3193992 C134.055319,16.4725907 133.921276,16.8555694 133.678723,17.4683353 C133.43617,18.0811013 133.174467,18.6811013 132.893616,19.2683353 C133.327659,18.7832289 133.787233,18.2725907 134.27234,17.7364204 C134.757446,17.2002502 135.23617,16.6896119 135.70851,16.2045056 C136.18085,15.7193992 136.634042,15.2853566 137.068084,14.9023779 C137.502127,14.5193992 137.885106,14.2257822 138.217021,14.0215268 C138.34468,13.970463 138.517021,13.970463 138.734042,14.0215268 C138.951063,14.0725907 139.168084,14.1555694 139.385106,14.270463 C139.602127,14.3853566 139.78085,14.5257822 139.921276,14.6917396 C140.061701,14.8576971 140.119148,15.0300375 140.093616,15.2087609 C139.991489,15.6172715 139.84468,16.076846 139.653191,16.5874843 C139.461701,17.0981226 139.251063,17.6342928 139.021276,18.1959949 C138.791489,18.757697 138.561701,19.3193992 138.331914,19.8811013 C138.102127,20.4428034 137.897872,20.9598247 137.719148,21.4321651 C137.540425,21.9045055 137.412765,22.3130162 137.33617,22.657697 C137.259574,23.0023779 137.259574,23.2385481 137.33617,23.3662076 C137.948936,23.0598247 138.612765,22.6768459 139.327659,22.2172715 C140.042553,21.757697 140.751063,21.2534417 141.453191,20.7045055 C142.155318,20.1555694 142.84468,19.6002502 143.521276,19.0385481 C144.197872,18.476846 144.804255,17.9406758 145.340425,17.4300375 C145.468084,17.3023779 145.551063,17.2449311 145.589361,17.257697 C145.627659,17.270463 145.634042,17.3279098 145.60851,17.4300375 C145.582978,17.5321651 145.538297,17.6470587 145.474467,17.7747183 C145.410638,17.9023779 145.340425,18.0172715 145.263829,18.1193992 C145.034042,18.4002502 144.868084,18.6045055 144.765957,18.7321651 C144.663829,18.8598247 144.587233,18.9619524 144.53617,19.0385481 C144.485106,19.1151438 144.453191,19.1917396 144.440425,19.2683353 C144.427659,19.3449311 144.421276,19.4598247 144.421276,19.6130162 C144.319148,19.8683353 144.051063,20.270463 143.617021,20.8193992 C143.182978,21.3683353 142.67234,21.9364204 142.085106,22.5236545 C141.497872,23.1108885 140.885106,23.6534417 140.246808,24.151314 C139.60851,24.6491864 139.059574,24.9747183 138.599999,25.1279098 C138.47234,25.1789736 138.255318,25.1662076 137.948936,25.0896119 C137.642553,25.0130162 137.323404,24.8981225 136.991489,24.744931 C136.659574,24.5917396 136.359574,24.4193991 136.091489,24.2279098 C135.823404,24.0364204 135.651063,23.8385481 135.574467,23.6342928 C135.446808,23.2768459 135.395744,22.8555694 135.421276,22.370463 C135.446808,21.8853566 135.523404,21.4066332 135.651063,20.9342928 C135.778723,20.4619523 135.925531,20.0087609 136.091489,19.5747183 C136.257446,19.1406758 136.417021,18.8087609 136.570212,18.5789736 C136.340425,18.6555694 136.00851,18.9236545 135.574467,19.3832289 C135.140425,19.8428034 134.674467,20.3662077 134.176595,20.9534417 C133.678723,21.5406757 133.187233,22.1406757 132.702127,22.7534417 C132.217021,23.3662076 131.795744,23.86408 131.438297,24.2470587 C131.310638,24.4002502 131.157446,24.4321651 130.978723,24.3428034 C130.799999,24.2534417 130.634042,24.1130162 130.48085,23.9215268 C130.327659,23.7300374 130.206382,23.5130162 130.117021,23.270463 C130.027659,23.0279098 130.00851,22.8045055 130.059574,22.6002502 C130.13617,22.2683353 130.212765,21.9683353 130.289361,21.7002502 C130.365957,21.4321651 130.442553,21.170463 130.519148,20.9151438 C130.595744,20.6598247 130.678723,20.4045055 130.768084,20.1491864 C130.857446,19.8938672 130.953191,19.6002502 131.055319,19.2683353 C130.876595,19.370463 130.557446,19.6385481 130.097872,20.0725906 C129.638297,20.5066332 129.134042,21.0236545 128.585106,21.6236545 C128.03617,22.2236545 127.48085,22.8491864 126.919148,23.5002502 C126.357446,24.151314 125.87234,24.744931 125.463829,25.2811013 C125.310638,25.4598247 125.119148,25.5428034 124.889361,25.5300374 C124.659574,25.5172715 124.429787,25.4470587 124.199999,25.3193991 C123.970212,25.1917396 123.778723,25.0385481 123.625531,24.8598247 C123.47234,24.6811013 123.40851,24.5023779 123.434042,24.3236545 Z" id="path-18"></path>
        <filter x="-27.0%" y="-49.4%" width="154.1%" height="198.7%" filterUnits="objectBoundingBox" id="filter-19">
            <feOffset dx="0" dy="0" in="SourceAlpha" result="shadowOffsetOuter1"></feOffset>
            <feGaussianBlur stdDeviation="2" in="shadowOffsetOuter1" result="shadowBlurOuter1"></feGaussianBlur>
            <feColorMatrix values="0 0 0 0 0.28627451   0 0 0 0 1   0 0 0 0 0.937254902  0 0 0 0.59 0" type="matrix" in="shadowBlurOuter1"></feColorMatrix>
        </filter>
        <path d="M146.489361,15.476846 C147.28085,14.7108885 147.976595,14.1172715 148.576595,13.6959949 C149.176595,13.2747183 149.725531,13.0066332 150.223404,12.8917396 C150.721276,12.776846 151.187233,12.8151439 151.621276,13.0066332 C152.055318,13.1981226 152.502127,13.5364205 152.961701,14.0215268 L153.536169,13.1406758 C153.663829,12.9619524 153.874467,12.8981226 154.168084,12.9491864 C154.461701,13.0002503 154.742552,13.1151439 155.010638,13.2938673 C155.278723,13.4725907 155.482978,13.683229 155.623404,13.9257822 C155.763829,14.1683354 155.757446,14.3789736 155.604255,14.5576971 C155.476595,14.7108885 155.246808,15.0811013 154.914893,15.6683353 C154.582978,16.2555694 154.231914,16.9257821 153.861701,17.6789736 C153.491489,18.4321651 153.153191,19.1789736 152.846808,19.9193992 C152.540425,20.6598247 152.348935,21.2598247 152.27234,21.7193991 C152.246808,21.770463 152.234042,21.8342928 152.234042,21.9108885 C152.234042,21.9874843 152.234042,22.06408 152.234042,22.1406757 C152.668084,21.9108885 153.165957,21.5917396 153.727659,21.1832289 C154.289361,20.7747183 154.838297,20.3598247 155.374467,19.9385481 C155.910638,19.5172715 156.414893,19.1151438 156.887233,18.7321651 C157.359574,18.3491864 157.723404,18.0555694 157.978723,17.8513141 C158.182978,17.6981226 158.361701,17.5896119 158.514893,17.5257821 C158.668084,17.4619524 158.821276,17.4045055 158.974467,17.3534417 C159.127659,17.3023779 159.293616,17.2449311 159.47234,17.1811013 C159.651063,17.1172715 159.855318,17.0087609 160.085106,16.8555694 C160.238297,16.7534417 160.346808,16.7215268 160.410638,16.7598247 C160.474467,16.7981226 160.442552,16.9066332 160.314893,17.0853566 C159.319148,18.4130162 158.259574,19.7023779 157.136169,20.9534417 C156.829786,21.2853566 156.485106,21.6683353 156.102127,22.1023779 C155.719148,22.5364204 155.304255,22.9321651 154.857446,23.2896119 C154.410638,23.6470587 153.94468,23.9215268 153.459574,24.1130162 C152.974467,24.3045055 152.476595,24.3236545 151.965957,24.170463 C151.046808,23.9406757 150.446808,23.5959949 150.165957,23.1364204 C149.885106,22.6768459 149.821276,22.1279098 149.974467,21.4896119 C149.463829,22.2300374 148.953191,22.9066332 148.442552,23.5193991 C147.931914,24.1321651 147.434042,24.5789736 146.948935,24.8598247 C145.212765,25.9066332 143.910638,25.5364204 143.042553,23.7491864 C142.863829,23.3917396 142.761701,22.9257821 142.73617,22.351314 C142.710638,21.776846 142.819148,21.1321651 143.061701,20.4172715 C143.304255,19.7023779 143.693616,18.9300375 144.229787,18.1002502 C144.765957,17.270463 145.519148,16.3959949 146.489361,15.476846 Z M147.025531,21.757697 C148.021276,20.6853566 148.97234,19.5491864 149.878723,18.3491864 C150.785106,17.1491864 151.646808,15.9364205 152.463829,14.7108885 C152.131914,14.6598247 151.723404,14.7683353 151.238297,15.0364205 C150.753191,15.3045056 150.274467,15.6236545 149.802127,15.9938673 C149.329787,16.36408 148.895744,16.7279098 148.499999,17.0853566 C148.104255,17.4428034 147.842552,17.6981226 147.714893,17.8513141 C147.40851,18.2087609 147.057446,18.6619524 146.661701,19.2108885 C146.265957,19.7598247 145.895744,20.3279098 145.551063,20.9151438 C145.206382,21.5023779 144.931914,22.051314 144.727659,22.5619523 C144.523404,23.0725906 144.47234,23.4555694 144.574467,23.7108885 C144.727659,23.9406757 144.976595,23.8832289 145.321276,23.5385481 C145.665957,23.1938672 146.234042,22.6002502 147.025531,21.757697 Z" id="path-20"></path>
        <filter x="-33.9%" y="-47.6%" width="167.8%" height="195.1%" filterUnits="objectBoundingBox" id="filter-21">
            <feOffset dx="0" dy="0" in="SourceAlpha" result="shadowOffsetOuter1"></feOffset>
            <feGaussianBlur stdDeviation="2" in="shadowOffsetOuter1" result="shadowBlurOuter1"></feGaussianBlur>
            <feColorMatrix values="0 0 0 0 0.28627451   0 0 0 0 1   0 0 0 0 0.937254902  0 0 0 0.59 0" type="matrix" in="shadowBlurOuter1"></feColorMatrix>
        </filter>
        <path d="M171.536169,17.4683353 C171.94468,17.1619524 172.174467,17.0406758 172.225531,17.1045056 C172.276595,17.1683353 172.136169,17.3917396 171.804255,17.7747183 C171.191489,18.5151438 170.553191,19.2555694 169.889361,19.9959949 C169.225531,20.7364204 168.561701,21.4321651 167.897872,22.0832289 C167.234042,22.7342928 166.563829,23.3151438 165.887233,23.8257821 C165.210638,24.3364204 164.540425,24.7193991 163.876595,24.9747183 C163.621276,25.5874842 163.257446,26.0470587 162.785106,26.3534417 C162.312765,26.6598247 161.802127,26.8257821 161.253191,26.851314 C160.704255,26.8768459 160.136169,26.7747183 159.548935,26.544931 C158.961701,26.3151438 158.438297,25.970463 157.978723,25.5108885 C157.851063,25.3832289 157.723404,25.2172715 157.595744,25.0130162 C157.468084,24.8087608 157.37234,24.5917396 157.30851,24.3619523 C157.24468,24.1321651 157.225531,23.9151438 157.251063,23.7108885 C157.276595,23.5066332 157.391489,23.3279098 157.595744,23.1747183 C157.697872,23.0725906 157.857446,23.0151438 158.074467,23.0023779 C158.291489,22.9896119 158.521276,22.9896119 158.763829,23.0023779 C159.006382,23.0151438 159.236169,23.0406757 159.453191,23.0789736 C159.670212,23.1172715 159.842552,23.1491864 159.970212,23.1747183 C160.327659,23.2002502 160.665957,23.2130162 160.985106,23.2130162 C161.304255,23.2130162 161.617021,23.1874842 161.923403,23.1364204 C161.999999,22.7534417 162.038297,22.36408 162.038297,21.9683353 C162.038297,21.5725906 162.038297,21.2087609 162.038297,20.876846 C162.063829,20.1874843 162.057446,19.4917396 162.019148,18.7896119 C161.98085,18.0874843 161.923403,17.3789736 161.846808,16.66408 C160.953191,17.6342928 159.976595,18.5789736 158.917021,19.4981226 C157.857446,20.4172715 156.906382,21.2087609 156.063829,21.8725906 C155.706382,22.1534417 155.540425,22.1981225 155.565957,22.0066332 C155.591489,21.8151438 155.706382,21.5789736 155.910638,21.2981226 C156.089361,21.0683353 156.242552,20.8193992 156.370212,20.551314 C156.497872,20.2832289 156.606382,20.0215268 156.695744,19.7662077 C156.785106,19.5108885 156.868084,19.2811013 156.94468,19.076846 C157.021276,18.8725906 157.123404,18.7193992 157.251063,18.6172715 C157.582978,18.2853566 158.138297,17.6598247 158.917021,16.7406758 C159.695744,15.8215268 160.531914,14.583229 161.425531,13.0257822 C161.527659,12.8470588 161.693616,12.770463 161.923403,12.7959949 C162.153191,12.8215268 162.382978,12.9045056 162.612765,13.0449311 C162.842552,13.1853566 163.053191,13.3513141 163.24468,13.5428034 C163.436169,13.7342928 163.54468,13.8938673 163.570212,14.0215268 C163.799999,15.3747183 164.010638,16.7789736 164.202127,18.2342928 C164.393616,19.6896119 164.425531,21.1193991 164.297872,22.5236545 C164.782978,22.2938672 165.287233,21.9683353 165.810638,21.5470587 C166.334042,21.1257821 166.84468,20.6981226 167.342552,20.26408 C167.840425,19.8300375 168.319148,19.4215268 168.778723,19.0385481 C169.238297,18.6555694 169.659574,18.3747183 170.042552,18.1959949 C170.323403,18.0683353 170.578723,17.9662077 170.80851,17.8896119 C171.038297,17.8130162 171.28085,17.6725907 171.536169,17.4683353 Z" id="path-22"></path>
        <filter x="-36.0%" y="-42.7%" width="172.0%" height="185.3%" filterUnits="objectBoundingBox" id="filter-23">
            <feOffset dx="0" dy="0" in="SourceAlpha" result="shadowOffsetOuter1"></feOffset>
            <feGaussianBlur stdDeviation="2" in="shadowOffsetOuter1" result="shadowBlurOuter1"></feGaussianBlur>
            <feColorMatrix values="0 0 0 0 0.28627451   0 0 0 0 1   0 0 0 0 0.937254902  0 0 0 0.59 0" type="matrix" in="shadowBlurOuter1"></feColorMatrix>
        </filter>
        <path d="M173.604254,23.1364204 C174.114893,22.8555694 174.682978,22.4789736 175.30851,22.0066332 C175.934042,21.5342928 176.578723,21.0172715 177.242552,20.4555694 C177.906382,19.8938672 178.576595,19.3193992 179.253191,18.7321651 C179.929786,18.1449311 180.574467,17.583229 181.187233,17.0470587 C181.289361,16.970463 181.353191,16.976846 181.378723,17.0662077 C181.404254,17.1555694 181.378723,17.26408 181.302127,17.3917396 C181.046808,17.8513141 180.855318,18.2151438 180.727659,18.4832289 C180.599999,18.7513141 180.47234,19.06408 180.34468,19.4215268 C180.21702,19.7534417 179.885106,20.2066332 179.348935,20.7811013 C178.812765,21.3555694 178.231914,21.9364204 177.606382,22.5236545 C176.98085,23.1108885 176.361701,23.6534417 175.748935,24.151314 C175.136169,24.6491864 174.689361,24.9747183 174.40851,25.1279098 C174.28085,25.2045055 174.051063,25.2364204 173.719148,25.2236544 C173.387233,25.2108885 173.036169,25.1534417 172.665957,25.051314 C172.295744,24.9491864 171.94468,24.8087608 171.612765,24.6300374 C171.28085,24.451314 171.051063,24.2215268 170.923403,23.9406757 C170.795744,23.6598247 170.751063,23.2896119 170.789361,22.8300374 C170.827659,22.370463 170.923403,21.8662077 171.076595,21.3172715 C171.229786,20.7683353 171.421276,20.1938672 171.651063,19.5938672 C171.88085,18.9938672 172.136169,18.4130162 172.41702,17.8513141 L171.421276,18.6172715 C171.191489,18.7449311 170.999999,18.8279098 170.846808,18.8662077 C170.693616,18.9045055 170.540425,18.9428034 170.387233,18.9811013 C170.234042,19.0193992 170.068084,19.070463 169.889361,19.1342928 C169.710637,19.1981226 169.493616,19.3193992 169.238297,19.4981226 C169.110637,19.6002502 169.014893,19.6257821 168.951063,19.5747183 C168.887233,19.5236545 168.919148,19.3959949 169.046808,19.1917396 C169.455318,18.5534417 169.902127,17.9023779 170.387233,17.2385481 C170.87234,16.5747183 171.34468,15.9555694 171.804255,15.3811013 C172.263829,14.8066332 172.691489,14.2959949 173.087233,13.8491864 C173.482978,13.4023779 173.795744,13.076846 174.025531,12.8725907 C174.204254,12.7193992 174.421276,12.6428034 174.676595,12.6428034 C175.41702,12.5917396 175.959574,12.7193992 176.304254,13.0257822 C176.648935,13.3321651 176.757446,13.66408 176.629786,14.0215268 C176.451063,14.4811013 176.170212,15.1513141 175.787233,16.0321651 C175.404254,16.9130162 175.027659,17.8257821 174.657446,18.770463 C174.287233,19.7151438 173.987233,20.5959949 173.757446,21.4130162 C173.527659,22.2300374 173.476595,22.8045055 173.604254,23.1364204 Z" id="path-24"></path>
        <filter x="-48.1%" y="-47.6%" width="196.2%" height="195.3%" filterUnits="objectBoundingBox" id="filter-25">
            <feOffset dx="0" dy="0" in="SourceAlpha" result="shadowOffsetOuter1"></feOffset>
            <feGaussianBlur stdDeviation="2" in="shadowOffsetOuter1" result="shadowBlurOuter1"></feGaussianBlur>
            <feColorMatrix values="0 0 0 0 0.28627451   0 0 0 0 1   0 0 0 0 0.937254902  0 0 0 0.59 0" type="matrix" in="shadowBlurOuter1"></feColorMatrix>
        </filter>
    </defs>
    <g id="Page-1" stroke="none" stroke-width="1" fill="none" fill-rule="evenodd">
        <g id="Artboard" transform="translate(-1239.000000, -928.000000)">
            <g id="Group-2" transform="translate(1240.000000, 929.000000)">
                <g id="Group" fill-rule="nonzero">
                    <path d="M8.1242581,36.9391255 C9.91603178,36.9391255 11.4767501,36.6670141 12.8046553,36.1227912 C14.1302171,35.5785684 15.2476977,34.830262 16.1569549,33.877872 C17.022261,32.9594959 17.715006,31.8455398 18.2358151,30.5360036 C18.7551315,29.2264674 19.1273092,27.8063859 19.3534679,26.2757591 C19.5494721,24.949216 19.6526515,23.767232 19.6634002,22.7298072 C19.6746745,21.6923824 19.5456436,20.7655029 19.2767663,19.9491686 C18.9684741,19.1668483 18.4879493,18.4780662 17.8354875,17.8828225 C17.1846088,17.2875788 16.294042,16.7688664 15.1640278,16.3266853 L11.2999233,14.7450377 C10.6420288,14.4729262 10.1341129,14.2008148 9.77595575,13.9287034 C9.41819494,13.656592 9.16594052,13.3334597 9.01910849,12.9593065 C8.87256079,12.5851532 8.81375357,12.1599792 8.84254143,11.6837842 C8.87141976,11.2075892 8.94690698,10.6123454 9.06893525,9.89805296 C9.1735309,9.28580226 9.32593612,8.69906201 9.52599097,8.1378322 C9.72583258,7.57660239 10.0020206,7.07489696 10.3543788,6.6327159 C10.7005407,6.22454877 11.1213272,5.88440949 11.6167126,5.61229807 C12.1116499,5.34018665 12.7218007,5.20413094 13.447501,5.20413094 C14.7952301,5.20413094 15.6847782,5.63780852 16.1175047,6.50516367 C16.5520438,7.37251883 16.6762752,8.40144014 16.4888395,9.59192761 L16.3040815,10.7654081 L21.645209,10.7654081 L22.0221402,8.21436354 C22.3337365,6.10550002 21.81675,4.234734 20.4783145,2.60206547 C19.8074398,1.81974513 18.9693258,1.19048747 17.9636881,0.714292482 C16.9599502,0.238097494 15.8084693,0 14.5078205,0 C12.9675785,0 11.5966547,0.26360794 10.3934213,0.790823819 C9.18801784,1.3180397 8.14667142,2.0238287 7.26924556,2.90819082 C6.35499979,3.79255294 5.59776466,4.8469847 4.9981088,6.07148609 C4.396747,7.29598749 3.97261783,8.58851674 3.72700074,9.94907385 C3.31559213,12.228007 3.36838621,14.1242835 3.88861799,15.6379033 C4.41316308,17.151523 5.76401467,18.367521 7.94369532,19.285897 L11.5757829,20.8165238 C12.2071136,21.0886352 12.7084091,21.3437396 13.0794383,21.5818371 C13.4508144,21.8199346 13.7315768,22.12606 13.9217144,22.5002132 C14.0765075,22.8743664 14.1414039,23.3675683 14.1163069,23.979819 C14.0913649,24.5920697 14.0039778,25.3743901 13.8540293,26.32678 C13.7255019,27.1431143 13.582029,27.8829172 13.4235161,28.5461888 C13.2648772,29.2094604 13.0035019,29.7791937 12.6391228,30.2553887 C12.2742613,30.7315837 11.8089097,31.0972334 11.2430786,31.3523379 C10.676779,31.6074423 9.92236924,31.7349945 8.98020068,31.7349945 C7.56694784,31.7349945 6.62591853,31.3523379 6.15831226,30.5870245 C5.69230531,29.8217111 5.54147993,28.9628594 5.70463661,28.0104695 L5.98433379,26.3778009 L0.491939442,26.3778009 L0.141014276,28.3165948 C-0.0806226704,29.5410962 -0.0411819161,30.6720593 0.260666884,31.7094841 C0.564289478,32.7469089 1.06509641,33.6567815 1.76346651,34.4391018 C2.46411552,35.2214221 3.3607588,35.8336728 4.45303127,36.2758539 C5.54709584,36.718035 6.77128614,36.9391255 8.1242581,36.9391255 Z M25.0595175,36.6330001 L27.7374372,28.8268037 L35.2545061,28.8268037 L35.9689236,36.6330001 L41.5606794,36.6330001 L37.2661375,0.306125349 L32.8996469,0.306125349 L19.4677617,36.6330001 L25.0595175,36.6330001 Z M34.8194982,23.9287981 L29.350832,23.9287981 L33.6889281,10.7654081 L33.7936561,10.7654081 L34.8194982,23.9287981 Z M51.9218741,36.6330001 C55.5766165,36.6330001 58.3015416,35.7826519 60.0892988,34.0819556 C61.8672554,32.3812592 62.8653107,29.9322564 63.0908151,26.7349472 L63.2347541,24.6941115 C63.3714961,22.7553176 63.1770911,21.2246909 62.6533516,20.1022313 C62.1320289,18.9797717 61.256837,18.1294235 60.0279406,17.5511867 C61.3158024,16.8709081 62.2933478,16.0545739 62.9613004,15.1021839 C63.3145223,14.591975 63.5942022,13.9967312 63.8004855,13.3164527 C64.006381,12.6361741 64.1439687,11.8028329 64.2135392,10.816429 L64.3070995,9.48988583 C64.3910639,8.29939836 64.3072973,7.1514283 64.0567974,6.04597565 C63.8076275,4.940523 63.335032,3.96262258 62.6397905,3.11227438 C61.9469184,2.26192619 61.028736,1.58164764 59.8851383,1.07143872 C58.74377,0.561229807 57.3348707,0.306125349 55.6567685,0.306125349 L48.0025673,0.306125349 L44.3017362,36.6330001 L51.9218741,36.6330001 Z M51.8689455,15.2042257 L52.7908238,5.20413094 L54.9679247,5.20413094 C56.7303396,5.20413094 57.9147095,5.61229807 58.5225463,6.42863233 C59.1323992,7.2449666 59.373062,8.469468 59.2430226,10.1021365 C59.110274,11.768819 58.7026433,13.0358378 58.0186886,13.9031929 C57.3328116,14.7705481 56.0917964,15.2042257 54.2970848,15.2042257 L51.8689455,15.2042257 Z M50.3732451,31.4288692 L51.4456341,19.7961059 L53.8406157,19.7961059 C54.8340896,19.7961059 55.623052,19.9066512 56.20786,20.1277417 C56.793144,20.3488322 57.2441265,20.697475 57.5609028,21.17367 C57.8426835,21.649865 58.0099448,22.2281018 58.0624736,22.9083803 C58.1152607,23.5886589 58.1051777,24.3879862 58.0320305,25.3063622 C57.9615925,26.1907243 57.8606349,27.0070586 57.7290157,27.755365 C57.5972068,28.5036714 57.3471238,29.149936 56.9784433,29.6941589 C56.6091425,30.2383817 56.0952661,30.6635558 55.4367706,30.9696812 C54.7775965,31.2758065 53.8863782,31.4288692 52.7636243,31.4288692 L50.3732451,31.4288692 Z M70.0676701,36.6330001 L72.1368151,28.8268037 L79.653884,28.8268037 L80.9770762,36.6330001 L86.568832,36.6330001 L79.4412996,0.306125349 L75.074809,0.306125349 L64.4759143,36.6330001 L70.0676701,36.6330001 Z M78.8368999,23.9287981 L73.3682337,23.9287981 L76.6797686,10.7654081 L76.7844966,10.7654081 L78.8368999,23.9287981 Z M94.6823602,36.6330001 L95.0007609,14.7960585 L95.1062547,14.7960585 L103.3441,36.6330001 L108.606929,36.6330001 L108.260138,0.306125349 L103.020349,0.306125349 L103.01723,22.1940878 L102.910331,22.1940878 L95.0065543,0.306125349 L89.9722475,0.306125349 L89.0906043,36.6330001 L94.6823602,36.6330001 Z M122.541806,36.9391255 C123.785077,36.9391255 124.937386,36.7095315 125.997446,36.2503434 C127.05579,35.7911554 127.968694,35.1704012 128.73581,34.3880809 C129.500747,33.6057606 130.085844,32.712895 130.491546,31.7094841 C130.895659,30.7060732 131.069585,29.643138 131.014515,28.5206784 L130.904375,26.2757591 L125.41297,26.2757591 L125.483279,28.0614904 C125.511403,28.7757828 125.426577,29.3710266 125.22853,29.8472216 C125.03012,30.3234165 124.77321,30.6975697 124.457837,30.9696812 C124.105948,31.2417926 123.723786,31.4373727 123.311481,31.5564214 C122.899003,31.6754702 122.511513,31.7349945 122.14914,31.7349945 C120.880836,31.7349945 119.991532,31.3778483 119.482144,30.6635558 C118.973977,29.9492633 118.705903,29.0649012 118.677007,28.0104695 L118.168064,9.43886494 C118.134508,8.21436354 118.32355,7.20244919 118.734242,6.40312189 C119.143669,5.60379459 120.004493,5.20413094 121.317665,5.20413094 C122.319823,5.20413094 123.128362,5.57828414 123.744491,6.32659055 C124.362232,7.07489696 124.691794,7.95925908 124.731971,8.97967691 L124.800272,10.7143872 L130.140905,10.7143872 L130.040778,8.67355156 C129.979033,7.41503624 129.705481,6.25005921 129.221394,5.17862049 C128.739003,4.10718177 128.101462,3.18030224 127.309135,2.3979819 C125.69532,0.799327301 123.659635,0 121.195248,0 C119.928827,0 118.779811,0.212587048 117.746969,0.637761144 C116.712484,1.06293524 115.826018,1.64967549 115.087239,2.3979819 C114.346375,3.14628831 113.778466,4.03065043 113.383912,5.05106826 C112.987807,6.07148609 112.799718,7.17693874 112.820808,8.36742621 L113.175121,28.3676157 C113.204647,30.0342982 113.509577,31.4033587 114.091487,32.4747975 C114.675501,33.5462362 115.412213,34.4220948 116.301596,35.1023734 C117.193048,35.7826519 118.190836,36.2588469 119.294186,36.5309583 C120.39857,36.8030698 121.481368,36.9391255 122.541806,36.9391255 Z M141.718895,36.6330001 L139.287906,0.306125349 L134.048117,0.306125349 L136.127139,36.6330001 L141.718895,36.6330001 Z M150.216171,36.6330001 L151.201237,28.8268037 L158.718306,28.8268037 L161.125577,36.6330001 L166.717333,36.6330001 L154.544938,0.306125349 L150.178447,0.306125349 L144.624415,36.6330001 L150.216171,36.6330001 Z M157.221116,23.9287981 L151.75245,23.9287981 L153.235931,10.7654081 L153.340659,10.7654081 L157.221116,23.9287981 Z M175.050145,36.6330001 L173.11642,21.1226491 L176.370637,21.1226491 L183.602243,36.6330001 L189.522925,36.6330001 L181.182731,20.0512104 C182.791321,19.1328343 183.830542,17.9253399 184.301897,16.4287271 C184.769556,14.9321143 184.84379,13.1123691 184.527371,10.9694917 C183.477665,3.86058079 179.870583,0.306125349 173.706126,0.306125349 L165.281368,0.306125349 L169.45839,36.6330001 L175.050145,36.6330001 Z M172.543935,16.5307689 L171.131807,5.20413094 L173.879101,5.20413094 C175.71063,5.20413094 177.019137,5.68032593 177.806342,6.6327159 C178.188129,7.14292482 178.479222,7.74667203 178.679383,8.44395755 C178.87981,9.14124307 179.043477,9.94907385 179.170187,10.8674499 C179.296897,11.7858259 179.355817,12.5936567 179.346749,13.2909422 C179.337416,13.9882278 179.224762,14.574968 179.008626,15.051163 C178.756796,15.527358 178.366125,15.8930077 177.836633,16.1481122 C177.306623,16.4032166 176.56522,16.5307689 175.61281,16.5307689 L172.543935,16.5307689 Z M201.090185,36.6330001 L195.753781,5.20413094 L201.870397,5.20413094 L200.98385,0.306125349 L183.620628,0.306125349 L184.349919,5.20413094 L190.466536,5.20413094 L195.498429,36.6330001 L201.090185,36.6330001 Z" id="SABANCIART" stroke="url(#linearGradient-1)" stroke-width="1.2851707"></path>
                    <g id="Ses-Yarmas" transform="translate(143.724077, 59.663334) rotate(-8.000000) translate(-143.724077, -59.663334) translate(53.029928, 42.354273)" opacity="0.695335751">
                        <g id="Shape">
                            <use fill="black" fill-opacity="1" filter="url(#filter-3)" xlink:href="#path-2"></use>
                            <use fill="#49FFEF" xlink:href="#path-2"></use>
                        </g>
                        <g id="Shape">
                            <use fill="black" fill-opacity="1" filter="url(#filter-5)" xlink:href="#path-4"></use>
                            <use fill="#49FFEF" xlink:href="#path-4"></use>
                        </g>
                        <g id="Path">
                            <use fill="black" fill-opacity="1" filter="url(#filter-7)" xlink:href="#path-6"></use>
                            <use fill="#49FFEF" xlink:href="#path-6"></use>
                        </g>
                        <g id="Path">
                            <use fill="black" fill-opacity="1" filter="url(#filter-9)" xlink:href="#path-8"></use>
                            <use fill="#49FFEF" xlink:href="#path-8"></use>
                        </g>
                        <g id="Shape">
                            <use fill="black" fill-opacity="1" filter="url(#filter-11)" xlink:href="#path-10"></use>
                            <use fill="#49FFEF" xlink:href="#path-10"></use>
                        </g>
                        <g id="Path">
                            <use fill="black" fill-opacity="1" filter="url(#filter-13)" xlink:href="#path-12"></use>
                            <use fill="#49FFEF" xlink:href="#path-12"></use>
                        </g>
                        <g id="Path">
                            <use fill="black" fill-opacity="1" filter="url(#filter-15)" xlink:href="#path-14"></use>
                            <use fill="#49FFEF" xlink:href="#path-14"></use>
                        </g>
                        <g id="Path">
                            <use fill="black" fill-opacity="1" filter="url(#filter-17)" xlink:href="#path-16"></use>
                            <use fill="#49FFEF" xlink:href="#path-16"></use>
                        </g>
                        <g id="Path">
                            <use fill="black" fill-opacity="1" filter="url(#filter-19)" xlink:href="#path-18"></use>
                            <use fill="#49FFEF" xlink:href="#path-18"></use>
                        </g>
                        <g id="Shape">
                            <use fill="black" fill-opacity="1" filter="url(#filter-21)" xlink:href="#path-20"></use>
                            <use fill="#49FFEF" xlink:href="#path-20"></use>
                        </g>
                        <g id="Path">
                            <use fill="black" fill-opacity="1" filter="url(#filter-23)" xlink:href="#path-22"></use>
                            <use fill="#49FFEF" xlink:href="#path-22"></use>
                        </g>
                        <g id="Path">
                            <use fill="black" fill-opacity="1" filter="url(#filter-25)" xlink:href="#path-24"></use>
                            <use fill="#49FFEF" xlink:href="#path-24"></use>
                        </g>
                    </g>
                </g>
                <line x1="263.5" y1="9.5" x2="263.5" y2="80.5" id="Line" stroke="#FFFFFF" stroke-width="2" stroke-linecap="square"></line>
                <g id="lothlogo" transform="translate(292.000000, 13.000000)" fill="#FFFFFF" fill-rule="nonzero">
                    <path d="M37.4319303,64.9650736 C37.4319303,64.9197888 38.0177741,64.5474628 38.7338185,64.1378828 C43.6340677,61.3350363 47.4736628,57.3518129 48.9766542,53.5118971 C49.3663225,52.5163625 49.3376661,52.4579757 48.6997563,52.9479479 C47.5293213,53.846981 43.9734899,56.0577287 41.7025418,57.2982848 C36.6820064,60.040846 32.1898388,61.7488262 27.6423885,62.6441564 C25.874593,62.992248 21.6023035,63.1856165 20.6122989,62.9624001 L20.0209886,62.8290694 L20.6122989,62.6511261 C24.9087626,61.3580679 31.0875259,58.3997671 34.9476094,55.7875648 C39.3516038,52.8072937 42.9534746,49.2450776 45.3120464,45.5372071 C48.0621418,41.2138405 49.3973069,36.606182 49.3997767,31.4306474 C49.4007929,28.8432457 49.2679926,27.6224876 48.7946356,25.8768879 C47.8273127,22.3098072 45.5805897,19.8966305 42.5566805,19.1767388 C41.0368381,18.8149261 38.4546635,18.9669144 36.5121003,19.5325205 C34.8193739,20.0253927 32.4769242,21.0610255 30.993164,21.9725344 C27.2791905,24.2540915 24.2259254,27.6131889 24.4792009,29.138952 C24.5815606,29.7557358 24.8005145,29.9665353 25.4391701,30.0633528 C26.0838298,30.1610572 27.6540367,29.5767204 29.1401177,28.6860354 C29.7470573,28.3222676 30.2696678,28.0540565 30.3014853,28.0900072 C30.4274235,28.2323419 29.6094202,29.5693251 28.893865,30.3906594 C27.0246894,32.5361274 24.7284019,32.8907522 22.1596184,31.4306474 C21.706087,31.1728483 21.1241193,30.7741533 20.8663307,30.5446537 C20.6085541,30.3151528 20.3254167,30.1065904 20.2371467,30.0811873 C20.1418892,30.0537334 19.9020532,30.5543121 19.6466636,31.3139187 C19.4101387,32.0173357 18.9402335,33.0940858 18.6023949,33.7066572 C17.9598882,34.871656 16.5376396,36.709606 15.8511698,37.2620334 L15.4499444,37.5849118 L15.5389506,37.002778 C15.5879561,36.6826002 15.655408,36.2535738 15.6889413,36.0493794 C15.8097887,35.3134895 15.6107476,35.3039608 14.370631,35.9859335 C12.0042977,37.287341 9.27979458,38.3984109 6.56353383,39.1696914 C5.19192726,39.5591525 4.58570258,39.9032345 3.79103323,40.7432912 C2.78648419,41.8051964 2.04907452,44.1861513 2.26309963,45.6766701 C2.37314032,46.4430565 2.18847474,46.0911322 1.70062771,44.6050947 C1.23063864,43.1733636 0.615096191,41.797814 0.2268069,41.3116274 C-0.0964068905,40.9068827 -0.0829625937,40.7730684 0.323872428,40.3446906 C1.49691181,39.1096418 3.28554092,35.6668761 3.51988196,34.1930325 C3.60736384,33.6424211 3.73169256,33.3737431 4.0007392,33.1534985 C7.60666801,30.2015281 10.5389581,26.8456857 12.8892957,22.9810176 C14.9059296,19.6650777 16.4619051,16.1180708 17.596774,12.2498933 C18.063777,10.6581523 18.860558,7.08727539 18.9846811,6.02982088 C19.0316423,5.62975672 19.1151311,5.27095364 19.1702354,5.23247099 C19.3608118,5.09936313 19.5852218,7.02632015 19.6548799,9.39375209 C19.7302139,11.9550149 19.519325,14.1391849 19.0244716,15.9226292 C18.8878047,16.4151521 18.7752387,16.8482813 18.7742992,16.8851483 C18.7732795,16.9220012 19.2125889,16.2203308 19.7503479,15.3258591 C21.2000866,12.9144678 22.3161724,11.3888522 24.1537927,9.30668028 C26.7778046,6.33346849 29.1658317,4.36761489 32.0846136,2.77794478 C36.7536888,0.234992908 41.3605081,-0.533918363 46.5972488,0.355672204 C47.4103115,0.493779074 48.0755306,0.662415454 48.0755306,0.730405167 C48.0755306,0.798344172 47.9534365,0.854011465 47.8041158,0.854011465 C47.3233614,0.854011465 45.6741691,1.82855586 44.593355,2.75131755 C43.6234915,3.57934082 41.2133381,6.21520084 40.3875012,7.35103463 L40.0365692,7.83366808 L41.414075,7.83366808 C46.6809847,7.83366808 52.1701502,9.58129016 56.2225355,12.5483095 C57.9732838,13.8301443 59.3368926,15.0942167 60.6902796,16.6898824 C62.6030755,18.9451754 64.0896056,21.3268934 65.3479478,24.1524283 C65.8204657,25.2134207 65.8264806,25.2463359 65.5301199,25.1509748 C64.484178,24.8144297 62.4597697,24.3018694 61.6757889,24.1751238 C60.6787697,24.0139453 57.9435165,23.9673597 57.6235571,24.1061234 C57.4823549,24.1674702 57.7130125,24.4774647 58.4340792,25.1962054 C62.435781,29.1846495 65.6699633,35.6317214 66.7839125,41.8409761 C67.4396544,45.4961323 67.4263365,50.2893288 66.7495248,54.2410061 C66.51778,55.5938661 65.9153686,58.1763502 65.8316919,58.1756545 C65.7863143,58.1753596 65.427134,57.4572652 65.0333061,56.5800607 C64.0620717,54.4167559 62.6914672,52.1382107 61.6606867,50.9732944 C61.191253,50.4427192 60.7512912,50.0086336 60.6830238,50.0086336 C60.6147211,50.0086336 60.5589208,50.2986805 60.5589208,50.6531638 C60.5589208,52.2025175 59.609359,54.9810471 58.5172951,56.627197 C55.6079526,61.0126769 50.314998,63.700342 42.7537777,64.6316052 C40.7672905,64.8762493 37.4319422,65.0852435 37.4319422,64.9650264 L37.4319303,64.9650736 Z M16.0788932,26.2416536 C16.5125283,26.0190799 16.9635167,25.8010712 17.0811049,25.7572099 C17.2055731,25.7107812 17.4652818,25.1453461 17.7027237,24.4037153 C18.4154192,22.1777572 18.4196153,22.1932153 17.3816145,23.2201391 C16.8819327,23.7144912 16.1141413,24.4256443 15.6754025,24.8004739 C14.6494988,25.6769578 14.0809505,26.5202919 13.6476547,27.8082814 C13.5387367,28.1320135 13.641628,28.078969 14.4061248,27.4143744 C14.8925148,26.9919744 15.6452571,26.4642543 16.0788932,26.2416536 L16.0788932,26.2416536 Z M40.8538742,50.2882437 C40.8503291,50.2376522 41.1124084,49.7516306 41.435062,49.2078237 C42.9358317,46.6785729 44.2008506,42.659558 44.8756769,38.276932 C45.0564902,37.1028409 45.1141457,35.9839405 45.1091471,33.7475667 C45.1044203,31.1644388 45.0649512,30.6243774 44.8149607,29.6022733 C44.460082,28.1516877 44.0300228,27.3042297 43.1882329,26.396879 C40.2660925,23.2470117 35.9157039,23.0801383 30.9092616,25.9258592 C29.5463937,26.700536 27.5055491,28.1539307 26.551101,29.0295065 C26.2399843,29.314927 25.9552162,29.5142993 25.9183031,29.4725653 C25.7915283,29.3292979 26.1560027,28.1035337 26.6294694,27.0808388 C27.1427894,25.9720285 28.5490319,24.2338206 29.5556335,23.4639176 C31.0247689,22.3402329 33.3325579,21.2528256 35.1490588,20.8283348 C39.5111226,19.8089713 43.6758648,20.6514976 45.7145009,22.9656998 C46.5934792,23.9634963 46.9255629,24.7009759 47.3526087,26.6035535 C48.8782179,33.4003243 47.2198437,41.0307555 42.7547231,47.7588632 C41.7718371,49.2399123 40.8634579,50.448651 40.8538742,50.2882437 L40.8538742,50.2882437 Z M9.77412567,47.0285749 C8.9010393,46.8636627 7.35448553,46.2118799 6.9463589,45.8368297 C6.66887014,45.5818668 6.65867199,45.5473489 6.88063228,45.6147337 C7.5186461,45.8083734 9.66081871,45.9972842 10.2774554,45.9142974 C10.9433481,45.8246712 10.984539,45.7885024 12.8594894,43.6436653 C16.4684718,39.5153064 18.9182172,35.5416235 19.5810787,32.7407227 C19.7607433,31.9815053 19.8324033,31.9163022 20.0946327,32.2733907 C20.3451631,32.6145503 21.1025295,33.0120778 21.912574,33.2276406 C22.8971037,33.4896202 25.8390708,33.3346023 27.4452512,32.936273 C28.1318238,32.7659596 28.8709812,32.5863299 29.087794,32.5370708 C29.3046055,32.4877764 28.0628381,33.2532194 26.3283181,34.2379753 C21.0085848,37.2581889 17.8345433,39.5861111 15.5185354,42.1661422 C13.9935714,43.864983 13.3509443,45.000983 13.1406864,46.3695866 C13.0632963,46.8735806 12.9907785,46.9770517 12.658859,47.0574086 C12.1083188,47.1906804 10.5498003,47.174984 9.77409966,47.028516 L9.77412567,47.0285749 Z" id="path1073"></path>
                    <path d="M111.89268,42.5862069 L111.89268,39.5043103 L101.620259,39.5043103 L101.620259,22.9741379 L97.9715844,22.9741379 L97.9715844,42.5862069 L111.89268,42.5862069 Z M121.042433,42.7823276 C122.576747,42.7823276 123.952017,42.4554598 125.168242,41.8017241 C126.384467,41.1479885 127.334057,40.2374281 128.017014,39.0700431 C128.699971,37.902658 129.04145,36.5811781 129.04145,35.1056034 C129.04145,33.6300287 128.699971,32.3132184 128.017014,31.1551724 C127.334057,29.9971264 126.384467,29.0912356 125.168242,28.4375 C123.952017,27.7837644 122.576747,27.4568965 121.042433,27.4568965 C119.52683,27.4568965 118.160916,27.7837644 116.944691,28.4375 C115.728466,29.0912356 114.778875,29.9971264 114.095918,31.1551724 C113.412961,32.3132184 113.071483,33.6300287 113.071483,35.1056034 C113.071483,36.5811781 113.412961,37.902658 114.095918,39.0700431 C114.778875,40.2374281 115.728466,41.1479885 116.944691,41.8017241 C118.160916,42.4554598 119.52683,42.7823276 121.042433,42.7823276 Z M121.042433,39.7844827 C119.751364,39.7844827 118.689506,39.354885 117.85686,38.4956896 C117.024213,37.6364942 116.60789,36.5064655 116.60789,35.1056034 C116.60789,33.7047414 117.024213,32.5747126 117.85686,31.7155172 C118.689506,30.8563218 119.751364,30.4267241 121.042433,30.4267241 C122.333502,30.4267241 123.400038,30.8563218 124.24204,31.7155172 C125.084042,32.5747126 125.505042,33.7047414 125.505042,35.1056034 C125.505042,36.5064655 125.084042,37.6364942 124.24204,38.4956896 C123.400038,39.354885 122.333502,39.7844827 121.042433,39.7844827 Z M138.050869,42.7823276 C138.705759,42.7823276 139.327905,42.6982758 139.917306,42.5301724 C140.506707,42.3620689 141.007231,42.1099138 141.418876,41.7737069 L141.418876,41.7737069 L140.436541,39.2801724 C139.912628,39.6910919 139.257738,39.8965517 138.47187,39.8965517 C137.798268,39.8965517 137.283712,39.7051006 136.9282,39.3221983 C136.572688,38.939296 136.394932,38.3836207 136.394932,37.6551724 L136.394932,37.6551724 L136.394932,30.5387931 L140.408474,30.5387931 L140.408474,27.737069 L136.394932,27.737069 L136.394932,24.3189655 L132.886591,24.3189655 L132.886591,27.737069 L130.41672,27.737069 L130.41672,30.5387931 L132.886591,30.5387931 L132.886591,37.7392241 C132.886591,39.3829023 133.335659,40.6343391 134.233794,41.4935345 C135.131929,42.3527299 136.404288,42.7823276 138.050869,42.7823276 Z M147.81809,42.5862069 L147.81809,35.0215517 C147.81809,33.5646552 148.192313,32.448635 148.940759,31.6734914 C149.689205,30.8983477 150.708962,30.5107758 152.000032,30.5107758 C153.141412,30.5107758 154.020836,30.8423132 154.638304,31.5053879 C155.255772,32.1684626 155.564506,33.1537356 155.564506,34.4612069 L155.564506,34.4612069 L155.564506,42.5862069 L159.072847,42.5862069 L159.072847,34.012931 C159.072847,31.8462644 158.502157,30.2119253 157.360776,29.1099138 C156.219396,28.0079023 154.703793,27.4568965 152.813967,27.4568965 C151.766142,27.4568965 150.816551,27.6203304 149.965194,27.9471983 C149.113837,28.2740661 148.398135,28.7456896 147.81809,29.362069 L147.81809,29.362069 L147.81809,21.7974138 L144.309749,21.7974138 L144.309749,42.5862069 L147.81809,42.5862069 Z M175.267347,42.5862069 L175.267347,36.8706896 L179.749431,36.8706261 C180.062557,36.869779 180.29931,36.8604611 180.459692,36.8426724 L180.459692,36.8426724 L184.473234,42.5862069 L188.402575,42.5862069 L183.883832,36.1422414 C185.231035,35.6192529 186.264826,34.825431 186.985206,33.7607758 C187.705585,32.6961207 188.065774,31.4260057 188.065774,29.950431 C188.065774,28.5122126 187.728974,27.2701149 187.055372,26.2241379 C186.381771,25.1781609 185.413469,24.375 184.150466,23.8146552 C182.887464,23.2543103 181.404605,22.9741379 179.70189,22.9741379 L179.70189,22.9741379 L171.618673,22.9741379 L171.618673,42.5862069 L175.267347,42.5862069 Z M179.53349,33.8728448 L175.267347,33.8728448 L175.267347,26.0560345 L179.53349,26.0560345 C181.123938,26.0560345 182.330807,26.3922414 183.154097,27.0646552 C183.977388,27.737069 184.389033,28.6989942 184.389033,29.950431 C184.389033,31.2018678 183.977388,32.1684626 183.154097,32.8502155 C182.330807,33.5319684 181.123938,33.8728448 179.53349,33.8728448 L179.53349,33.8728448 Z M198.534663,42.7823276 C200.068978,42.7823276 201.444247,42.4554598 202.660472,41.8017241 C203.876697,41.1479885 204.826288,40.2374281 205.509245,39.0700431 C206.192202,37.902658 206.53368,36.5811781 206.53368,35.1056034 C206.53368,33.6300287 206.192202,32.3132184 205.509245,31.1551724 C204.826288,29.9971264 203.876697,29.0912356 202.660472,28.4375 C201.444247,27.7837644 200.068978,27.4568965 198.534663,27.4568965 C197.01906,27.4568965 195.653146,27.7837644 194.436921,28.4375 C193.220696,29.0912356 192.271106,29.9971264 191.588149,31.1551724 C190.905192,32.3132184 190.563713,33.6300287 190.563713,35.1056034 C190.563713,36.5811781 190.905192,37.902658 191.588149,39.0700431 C192.271106,40.2374281 193.220696,41.1479885 194.436921,41.8017241 C195.653146,42.4554598 197.01906,42.7823276 198.534663,42.7823276 Z M198.534663,39.7844827 C197.243594,39.7844827 196.181736,39.354885 195.34909,38.4956896 C194.516444,37.6364942 194.100121,36.5064655 194.100121,35.1056034 C194.100121,33.7047414 194.516444,32.5747126 195.34909,31.7155172 C196.181736,30.8563218 197.243594,30.4267241 198.534663,30.4267241 C199.825733,30.4267241 200.892268,30.8563218 201.73427,31.7155172 C202.576272,32.5747126 202.997273,33.7047414 202.997273,35.1056034 C202.997273,36.5064655 202.576272,37.6364942 201.73427,38.4956896 C200.892268,39.354885 199.825733,39.7844827 198.534663,39.7844827 Z M218.209438,42.7823276 C219.668908,42.7823276 220.974011,42.4647988 222.124746,41.8297414 C223.275482,41.1946839 224.178295,40.2934626 224.833185,39.1260776 C225.488076,37.9586925 225.815521,36.6185345 225.815521,35.1056034 C225.815521,33.5926724 225.488076,32.2571839 224.833185,31.0991379 C224.178295,29.9410919 223.275482,29.0445402 222.124746,28.4094827 C220.974011,27.7744253 219.668908,27.4568965 218.209438,27.4568965 C217.236458,27.4568965 216.343001,27.625 215.529066,27.9612069 C214.715131,28.2974138 214.008785,28.792385 213.410028,29.4461207 L213.410028,29.4461207 L213.410028,21.7974138 L209.901687,21.7974138 L209.901687,42.5862069 L213.241628,42.5862069 L213.241628,40.6530172 C213.821673,41.3627873 214.537375,41.8951149 215.388732,42.25 C216.240089,42.604885 217.180325,42.7823276 218.209438,42.7823276 Z M217.816504,39.7844827 C216.974502,39.7844827 216.2167,39.5930316 215.543099,39.2101293 C214.869498,38.827227 214.33623,38.2808908 213.943296,37.5711207 C213.550362,36.8613506 213.353894,36.0395115 213.353894,35.1056034 C213.353894,34.1716954 213.550362,33.3498563 213.943296,32.6400862 C214.33623,31.9303161 214.869498,31.3839799 215.543099,31.0010776 C216.2167,30.6181753 216.974502,30.4267241 217.816504,30.4267241 C219.107573,30.4267241 220.169431,30.8563218 221.002077,31.7155172 C221.834723,32.5747126 222.251047,33.7047414 222.251047,35.1056034 C222.251047,36.5064655 221.834723,37.6364942 221.002077,38.4956896 C220.169431,39.354885 219.107573,39.7844827 217.816504,39.7844827 Z M235.891475,42.7823276 C237.42579,42.7823276 238.801059,42.4554598 240.017284,41.8017241 C241.233509,41.1479885 242.1831,40.2374281 242.866057,39.0700431 C243.549014,37.902658 243.890492,36.5811781 243.890492,35.1056034 C243.890492,33.6300287 243.549014,32.3132184 242.866057,31.1551724 C242.1831,29.9971264 241.233509,29.0912356 240.017284,28.4375 C238.801059,27.7837644 237.42579,27.4568965 235.891475,27.4568965 C234.375872,27.4568965 233.009958,27.7837644 231.793733,28.4375 C230.577509,29.0912356 229.627918,29.9971264 228.944961,31.1551724 C228.262004,32.3132184 227.920525,33.6300287 227.920525,35.1056034 C227.920525,36.5811781 228.262004,37.902658 228.944961,39.0700431 C229.627918,40.2374281 230.577509,41.1479885 231.793733,41.8017241 C233.009958,42.4554598 234.375872,42.7823276 235.891475,42.7823276 Z M235.891475,39.7844827 C234.600406,39.7844827 233.538548,39.354885 232.705902,38.4956896 C231.873256,37.6364942 231.456933,36.5064655 231.456933,35.1056034 C231.456933,33.7047414 231.873256,32.5747126 232.705902,31.7155172 C233.538548,30.8563218 234.600406,30.4267241 235.891475,30.4267241 C237.182545,30.4267241 238.24908,30.8563218 239.091082,31.7155172 C239.933084,32.5747126 240.354085,33.7047414 240.354085,35.1056034 C240.354085,36.5064655 239.933084,37.6364942 239.091082,38.4956896 C238.24908,39.354885 237.182545,39.7844827 235.891475,39.7844827 Z M252.899911,42.7823276 C253.554801,42.7823276 254.176947,42.6982758 254.766348,42.5301724 C255.35575,42.3620689 255.856273,42.1099138 256.267918,41.7737069 L256.267918,41.7737069 L255.285583,39.2801724 C254.761671,39.6910919 254.10678,39.8965517 253.320912,39.8965517 C252.647311,39.8965517 252.132754,39.7051006 251.777242,39.3221983 C251.42173,38.939296 251.243974,38.3836207 251.243974,37.6551724 L251.243974,37.6551724 L251.243974,30.5387931 L255.257516,30.5387931 L255.257516,27.737069 L251.243974,27.737069 L251.243974,24.3189655 L247.735634,24.3189655 L247.735634,27.737069 L245.265762,27.737069 L245.265762,30.5387931 L247.735634,30.5387931 L247.735634,37.7392241 C247.735634,39.3829023 248.184701,40.6343391 249.082836,41.4935345 C249.980972,42.3527299 251.25333,42.7823276 252.899911,42.7823276 Z M260.926995,25.1594827 C261.581885,25.1594827 262.119831,24.9493534 262.540832,24.5290948 C262.961832,24.1088362 263.172333,23.5905172 263.172333,22.9741379 C263.172333,22.3951149 262.957155,21.9141523 262.526798,21.53125 C262.096442,21.1483477 261.563174,20.9568965 260.926995,20.9568965 C260.290816,20.9568965 259.757548,21.1576868 259.327191,21.5592672 C258.896835,21.9608477 258.681657,22.4604885 258.681657,23.0581896 C258.681657,23.6558908 258.896835,24.1555316 259.327191,24.5571121 C259.757548,24.9586925 260.290816,25.1594827 260.926995,25.1594827 Z M262.667132,42.5862069 L262.667132,27.625 L259.158791,27.625 L259.158791,42.5862069 L262.667132,42.5862069 Z M274.146423,42.7823276 C275.605892,42.7823276 276.892284,42.4788075 278.005597,41.8717672 C279.118911,41.264727 279.965591,40.4008621 280.545636,39.2801724 L280.545636,39.2801724 L277.85123,37.7112069 C277.420874,38.4022988 276.882928,38.9206178 276.237394,39.2661638 C275.591859,39.6117098 274.885513,39.7844827 274.118356,39.7844827 C272.789864,39.7844827 271.69994,39.3595546 270.848582,38.5096983 C269.997225,37.6598419 269.571546,36.5251437 269.571546,35.1056034 C269.571546,33.6860632 270.001903,32.5513649 270.862616,31.7015086 C271.723329,30.8516523 272.808575,30.4267241 274.118356,30.4267241 C274.885513,30.4267241 275.591859,30.5994971 276.237394,30.9450431 C276.882928,31.2905891 277.420874,31.808908 277.85123,32.5 L277.85123,32.5 L280.545636,30.9310345 C279.984302,29.8103448 279.146978,28.9511494 278.033664,28.3534483 C276.920351,27.7557471 275.624604,27.4568965 274.146423,27.4568965 C272.574686,27.4568965 271.176028,27.7837644 269.950447,28.4375 C268.724867,29.0912356 267.76592,29.9971264 267.073608,31.1551724 C266.381295,32.3132184 266.035139,33.6300287 266.035139,35.1056034 C266.035139,36.5811781 266.381295,37.902658 267.073608,39.0700431 C267.76592,40.2374281 268.729545,41.1479885 269.964481,41.8017241 C271.199416,42.4554598 272.593397,42.7823276 274.146423,42.7823276 Z M288.207852,42.7823276 C290.303501,42.7823276 291.959438,42.3620689 293.175663,41.5215517 C294.391888,40.6810345 295,39.5603448 295,38.1594827 C295,37.0948276 294.724011,36.2729885 294.172032,35.6939655 C293.620053,35.1149425 292.960485,34.704023 292.193327,34.4612069 C291.42617,34.2183908 290.443835,34.0035919 289.246321,33.8168103 C288.048808,33.6113506 287.164706,33.3918822 286.594016,33.1584052 C286.023326,32.9249281 285.73798,32.5280172 285.73798,31.9676724 C285.73798,31.4633621 286.004614,31.0571121 286.537882,30.7489224 C287.07115,30.4407327 287.85234,30.2866379 288.881454,30.2866379 C290.471902,30.2866379 291.903305,30.6602011 293.175663,31.4073276 L293.175663,31.4073276 L294.522866,28.7456896 C293.867975,28.3534483 293.025974,28.0405891 291.99686,27.8071121 C290.967747,27.573635 289.938634,27.4568965 288.90952,27.4568965 C286.888716,27.4568965 285.284235,27.8818247 284.096077,28.731681 C282.907919,29.5815373 282.31384,30.7162356 282.31384,32.1357758 C282.31384,33.2191092 282.599185,34.064296 283.169875,34.6713362 C283.740565,35.2783764 284.414167,35.7033046 285.190679,35.9461207 C285.967192,36.1889368 286.972916,36.4037356 288.207852,36.5905172 C289.386655,36.7772988 290.24269,36.9734195 290.775958,37.1788793 C291.309226,37.3843391 291.575859,37.7485632 291.575859,38.2715517 C291.575859,39.3735632 290.528035,39.9245689 288.432386,39.9245689 C287.51554,39.9245689 286.58466,39.7891523 285.639747,39.5183189 C284.694834,39.2474856 283.885577,38.887931 283.211975,38.4396552 L283.211975,38.4396552 L281.864772,41.1012931 C282.557085,41.5869253 283.483287,41.9885057 284.643378,42.3060345 C285.803469,42.6235632 286.991628,42.7823276 288.207852,42.7823276 Z" id="LothRobotics"></path>
                </g>
            </g>
        </g>
    </g>
</svg>